<?xml version="1.0" standalone="no"?>
<!DOCTYPE svg PUBLIC "-//W3C//DTD SVG 1.1//EN" "http://www.w3.org/Graphics/SVG/1.1/DTD/svg11.dtd" >
<!--
2013-9-30: Created.
-->
<svg>
<metadata>
Created by iconfont
</metadata>
<defs>

<font id="iconfont" horiz-adv-x="1024" >
  <font-face
    font-family="iconfont"
    font-weight="500"
    font-stretch="normal"
    units-per-em="1024"
    ascent="896"
    descent="-128"
  />
    <missing-glyph />
    
    <glyph glyph-name="icon_fasongren" unicode="&#58976;" d="M614.4 896H409.6A409.6 409.6 0 0 1 0 486.4v-204.8a409.6 409.6 0 0 1 409.6-409.6h204.8a409.6 409.6 0 0 1 409.6 409.6V486.4a409.6 409.6 0 0 1-409.6 409.6z m-95.5392-231.2704a141.2608 141.2608 0 1 0-141.1072-141.4144 141.2608 141.2608 0 0 0 141.1072 141.4144z m42.1376-508.9792H296.1408a84.7872 84.7872 0 0 0-84.5824 79.1552v5.5808c0 46.6432 43.8272 84.7872 97.6384 84.7872h251.9552a96.6656 96.6656 0 0 1 0-169.6256z m258.6624 80.2304a27.3408 27.3408 0 0 0-5.12-14.2336l-2.6112-3.0208-62.208-62.0544a27.0336 27.0336 0 0 0-40.96 35.1744l2.6112 3.0208 16.8448 16.8448H604.16a27.0336 27.0336 0 1 0 0 54.0672h123.4944l-14.1312 14.1312a27.0336 27.0336 0 0 0 38.1952 38.2464l60.3136-60.3136a26.7264 26.7264 0 0 0 7.8336-17.2032z"  horiz-adv-x="1024" />

    
    <glyph glyph-name="icon_biji" unicode="&#58977;" d="M589.312 519.168H388.608a32.6144 32.6144 0 0 1 0-65.024H588.8c16.384 0 29.696 14.336 30.208 32.768a31.2832 31.2832 0 0 1-29.696 32.256zM488.96 400.384H388.608a32.6144 32.6144 0 0 1 0-65.024h100.352a32.6144 32.6144 0 0 1 0 65.024zM614.4 896H409.6A409.6 409.6 0 0 1 0 486.4v-204.8a409.6 409.6 0 0 1 409.6-409.6h204.8a409.6 409.6 0 0 1 409.6 409.6V486.4a409.6 409.6 0 0 1-409.6 409.6z m151.04-733.696a29.44 29.44 0 0 0-7.168-19.456 46.08 46.08 0 0 0-19.968-12.8 57.7024 57.7024 0 0 0-16.384-2.56 54.784 54.784 0 0 0-31.232 9.728l-140.8 66.56a54.272 54.272 0 0 1-47.104 0l-139.776-67.584a58.7264 58.7264 0 0 0-31.744-9.216 44.3392 44.3392 0 0 0-16.384 3.072 40.6016 40.6016 0 0 0-19.456 12.8 28.3648 28.3648 0 0 0-7.68 19.456V526.336a102.7072 102.7072 0 0 0 102.4 102.4h272.896a102.7072 102.7072 0 0 0 102.4-102.4z"  horiz-adv-x="1024" />

    
    <glyph glyph-name="icon_shoucang" unicode="&#58978;" d="M601.6 487.0656h-179.2a32.5632 32.5632 0 0 1 0-64.8704h179.2a32.5632 32.5632 0 0 1 0 64.8704zM614.4 896H409.6a409.6 409.6 0 0 1-409.6-409.6v-204.8a409.6 409.6 0 0 1 409.6-409.6h204.8a409.6 409.6 0 0 1 409.6 409.6v204.8a409.6 409.6 0 0 1-409.6 409.6z m136.5504-665.6a102.4 102.4 0 0 0-102.4-102.4H375.4496a102.4 102.4 0 0 0-102.4 102.4v307.2a102.4 102.4 0 0 0 102.4 102.4h273.1008a102.4 102.4 0 0 0 102.4-102.4z"  horiz-adv-x="1024" />

    
    <glyph glyph-name="icon_shipin" unicode="&#58979;" d="M547.84 399.7696L432.7936 479.0784c-15.36 10.7008-37.0176 1.024-37.0176-15.9232v-158.72c0-16.6912 22.3744-26.0608 37.0176-15.872L547.84 367.9744a18.432 18.432 0 0 1 0 31.7952zM614.4 896H409.6A409.6 409.6 0 0 1 0 486.4v-204.8a409.6 409.6 0 0 1 409.6-409.6h204.8a409.6 409.6 0 0 1 409.6 409.6V486.4a409.6 409.6 0 0 1-409.6 409.6z m171.8784-652.2368c-1.8944-15.36-8.8576-21.76-21.1968-15.36a12.9536 12.9536 0 0 1-6.912 4.4544c-22.784 17.3056-45.568 32.512-68.352 49.8176-3.1232 2.7648-7.0656 5.376-10.8032 8.5504v-9.4208c0-55.296-46.08-100.5056-103.6288-103.6288H347.8016c-58.624 0-106.5472 43.2128-109.9264 97.7408V486.0416c0 55.296 46.08 100.5056 103.6288 103.6288H569.088c58.6752 0 106.5984-43.2128 109.9264-97.7408V474.2656c2.1504 1.8432 4.608 3.5328 7.6288 5.888L760.064 532.48a29.4912 29.4912 0 0 0 12.3392 4.5056c6.9632 2.048 12.3392-4.5056 13.8752-13.1584z"  horiz-adv-x="1024" />

    
    <glyph glyph-name="icon_xindehaoyou" unicode="&#58980;" d="M614.4 896H409.6A409.6 409.6 0 0 1 0 486.4v-204.8a409.6 409.6 0 0 1 409.6-409.6h204.8a409.6 409.6 0 0 1 409.6 409.6V486.4a409.6 409.6 0 0 1-409.6 409.6zM477.7984 652.6464A140.4928 140.4928 0 1 0 337.5104 512a140.4416 140.4416 0 0 0 140.288 140.6464z m94.9248-505.7536H309.4016A84.2752 84.2752 0 0 0 225.28 225.6896v5.5296c0 46.3872 43.5712 84.3264 97.28 84.3264h250.4704a96.1536 96.1536 0 0 1 0-168.96z m225.28 63.2832h-67.2256v-63.232a31.6416 31.6416 0 0 0-63.232 0V209.92h-59.1872a31.6416 31.6416 0 0 0 0 63.232h59.2384v63.4368a31.6416 31.6416 0 0 0 63.232 0v-63.1808h67.2256a31.6416 31.6416 0 0 0 0-63.232z"  horiz-adv-x="1024" />

    
    <glyph glyph-name="icon_qunwenjian" unicode="&#58981;" d="M564.48 375.3984H412.6208a31.232 31.232 0 1 1 0-62.4128h151.8592a31.232 31.232 0 0 1 0 62.4128zM611.3792 511.6928H412.6208a31.232 31.232 0 1 1 0-62.4128h198.7584a31.232 31.232 0 1 1 0 62.4128zM614.4 896H409.6A409.6 409.6 0 0 1 0 486.4v-204.8a409.6 409.6 0 0 1 409.6-409.6h204.8a409.6 409.6 0 0 1 409.6 409.6V486.4a409.6 409.6 0 0 1-409.6 409.6z m127.3344-667.904a102.4 102.4 0 0 0-102.4-102.4H384.6656a102.4 102.4 0 0 0-102.4 102.4v311.808a102.4 102.4 0 0 0 102.4 102.4h254.6688a102.4 102.4 0 0 0 102.4-102.4z"  horiz-adv-x="1024" />

    
    <glyph glyph-name="icon_yuyin" unicode="&#58982;" d="M573.696 518.3488a29.6448 29.6448 0 1 1-29.0304 29.4912 29.3376 29.3376 0 0 1 29.0304-29.4912zM614.4 896H409.6A409.6 409.6 0 0 1 0 486.4v-204.8a409.6 409.6 0 0 1 409.6-409.6h204.8a409.6 409.6 0 0 1 409.6 409.6V486.4a409.6 409.6 0 0 1-409.6 409.6zM365.824 497.8176a145.92 145.92 0 1 0 291.84 0v-66.0992a145.92 145.92 0 1 0-291.84 0z m212.4288-378.88H445.44a27.0848 27.0848 0 0 0 0 54.1184h133.4784a27.0848 27.0848 0 1 0-0.6144-54.1184z m160 268.2368A230.4 230.4 0 0 0 660.48 250.88a226.0992 226.0992 0 0 0-148.48-55.3472 230.8608 230.8608 0 0 0-226.304 191.6928 27.648 27.648 0 0 0 22.2208 30.72 27.2896 27.2896 0 0 0 30.4128-22.2208 176.0256 176.0256 0 0 1 347.2896 0 25.9584 25.9584 0 0 0 30.4128 22.2208 27.6992 27.6992 0 0 0 22.2208-30.72z"  horiz-adv-x="1024" />

    
    <glyph glyph-name="icon_qunzu" unicode="&#58983;" d="M519.7312 427.7248a34.7136 34.7136 0 1 1 34.7136-34.7136 34.7648 34.7648 0 0 1-34.7136 34.7136zM658.5344 427.7248a34.7136 34.7136 0 1 1 34.7136-34.7136 34.7648 34.7648 0 0 1-34.7136 34.7136zM380.8768 427.7248a34.7136 34.7136 0 1 1 34.7136-34.7136 34.7648 34.7648 0 0 1-34.7136 34.7136zM614.4 896H409.6A409.6 409.6 0 0 1 0 486.4v-204.8a409.6 409.6 0 0 1 409.6-409.6h204.8a409.6 409.6 0 0 1 409.6 409.6V486.4a409.6 409.6 0 0 1-409.6 409.6z m182.9888-608.8704a102.4 102.4 0 0 0-102.4-102.4h-162.8672l-131.9424-82.6368A34.1504 34.1504 0 0 0 348.16 130.9696v53.76h-3.4304a102.4 102.4 0 0 0-102.4 102.4V498.8416a102.4 102.4 0 0 0 102.4 102.4h350.5152a102.4 102.4 0 0 0 102.4-102.4z"  horiz-adv-x="1024" />

    
    <glyph glyph-name="icon_wodehaoyou" unicode="&#58984;" d="M614.4 896H409.6A409.6 409.6 0 0 1 0 486.4v-204.8a409.6 409.6 0 0 1 409.6-409.6h204.8a409.6 409.6 0 0 1 409.6 409.6V486.4a409.6 409.6 0 0 1-409.6 409.6z m-102.4-260.8128a140.6464 140.6464 0 1 0-140.4928-140.8A140.5952 140.5952 0 0 0 512 635.1872z m168.96-506.3168H343.04a84.3776 84.3776 0 0 0-84.3776 84.4288c0 46.3872 43.6224 84.3776 97.28 84.3776h311.552c53.5552 0 97.536-37.9904 97.536-84.3776A84.3776 84.3776 0 0 0 680.96 128.8704z"  horiz-adv-x="1024" />

    
    <glyph glyph-name="icon_tupian" unicode="&#58985;" d="M600.4224 453.0176a23.8592 23.8592 0 0 1-8.8576 10.24 23.5008 23.5008 0 0 1-32.4096-7.5776l-86.1696-139.1104a4.4544 4.4544 0 0 0-0.8704-1.0752 6.6048 6.6048 0 0 0-9.472 0l-43.8784 42.1888a15.616 15.616 0 0 1-2.5088 1.9456 16.7424 16.7424 0 0 1-23.1936-5.12l-56.32-87.04A13.4656 13.4656 0 0 1 348.16 246.784h327.68a13.056 13.056 0 0 1 5.7344 1.28 13.5168 13.5168 0 0 1 6.4512 17.92zM414.4128 438.9888a41.1136 41.1136 0 0 1 0 82.2272 40.6016 40.6016 0 0 1-40.96-40.96 41.5232 41.5232 0 0 1 40.96-41.2672zM614.4 896H409.6A409.6 409.6 0 0 1 0 486.4v-204.8a409.6 409.6 0 0 1 409.6-409.6h204.8a409.6 409.6 0 0 1 409.6 409.6V486.4a409.6 409.6 0 0 1-409.6 409.6z m149.5552-670.2592a100.9152 100.9152 0 0 0-100.7616-101.0688H360.8064a100.9152 100.9152 0 0 0-100.7616 101.0688V542.2592a100.9152 100.9152 0 0 0 100.7616 101.0688h302.3872a100.9152 100.9152 0 0 0 100.7616-101.0688z"  horiz-adv-x="1024" />

    
    <glyph glyph-name="icon_wenjian" unicode="&#58987;" d="M430.08 306.8928H355.6352a33.8432 33.8432 0 0 1-3.9936-67.4816H430.08a33.8944 33.8944 0 1 1 0 67.7376zM614.4 896H409.6A409.6 409.6 0 0 1 0 486.4v-204.8a409.6 409.6 0 0 1 409.6-409.6h204.8a409.6 409.6 0 0 1 409.6 409.6V486.4a409.6 409.6 0 0 1-409.6 409.6z m169.5232-629.76a102.4 102.4 0 0 0-102.4-102.4H342.4768a102.4 102.4 0 0 0-102.4 102.4v106.4448c0 4.5056 0 8.9088 0.6144 13.312h-0.6144V535.7568A68.2496 68.2496 0 0 0 308.3264 604.16H501.76a68.2496 68.2496 0 0 0 66.8672-54.4768l8.2944-40.2944h104.448a102.4 102.4 0 0 0 102.4-102.4z"  horiz-adv-x="1024" />

    
    <glyph glyph-name="luanma" unicode="&#59098;" d="M768-44.8h-448c-121.6 0-224 102.4-224 224v448C96 748.8 198.4 851.2 320 851.2h448C889.6 851.2 992 748.8 992 627.2v-448c0-128-102.4-224-224-224z m-448 832C230.4 787.2 160 716.8 160 627.2v-448c0-89.6 70.4-160 160-160h448c89.6 0 160 70.4 160 160v448c0 89.6-70.4 160-160 160h-448zM672 640c32-25.6 44.8-64 44.8-108.8 0-38.4-12.8-70.4-25.6-96-6.4-6.4-32-25.6-64-57.6-12.8-12.8-25.6-25.6-32-38.4-6.4-12.8-12.8-32-12.8-51.2v-12.8H492.8v12.8c0 32 6.4 57.6 12.8 76.8 12.8 19.2 38.4 51.2 89.6 96l6.4 12.8c12.8 19.2 19.2 38.4 19.2 57.6 0 25.6-6.4 44.8-19.2 57.6-12.8 12.8-38.4 19.2-64 19.2-32 0-57.6-12.8-70.4-32-12.8-19.2-19.2-44.8-19.2-76.8H358.4c0 57.6 19.2 102.4 51.2 134.4s76.8 51.2 134.4 51.2c57.6-6.4 96-19.2 128-44.8z m-89.6-422.4c12.8-12.8 19.2-25.6 19.2-38.4 0-19.2-6.4-32-19.2-44.8s-25.6-19.2-44.8-19.2c-19.2 0-32 6.4-44.8 19.2s-19.2 25.6-19.2 38.4c0 19.2 6.4 32 19.2 38.4 12.8 12.8 25.6 19.2 44.8 19.2 19.2 6.4 32 0 44.8-12.8z"  horiz-adv-x="1024" />

    
    <glyph glyph-name="gengduo1" unicode="&#58962;" d="M245.76 462.848c-43.52 0-78.848-35.328-78.848-78.848s35.328-78.848 78.848-78.848 78.848 35.328 78.848 78.848S289.28 462.848 245.76 462.848z m268.8 0c-43.52 0-78.848-35.328-78.848-78.848s35.328-78.848 78.848-78.848 78.848 35.328 78.848 78.848-35.328 78.848-78.848 78.848z m263.68 0c-43.52 0-78.848-35.328-78.848-78.848s35.328-78.848 78.848-78.848 78.848 35.328 78.848 78.848-35.84 78.848-78.848 78.848z"  horiz-adv-x="1024" />

    
    <glyph glyph-name="faqiqunliao" unicode="&#59100;" d="M691.2 435.2H550.4V576c0 12.8-12.8 25.6-25.6 25.6h-25.6c-12.8 0-25.6-12.8-25.6-25.6v-140.8H332.8c-12.8 0-25.6-6.4-25.6-19.2v-25.6c0-12.8 12.8-25.6 25.6-25.6h147.2v-140.8c0-12.8 12.8-25.6 25.6-25.6h25.6c12.8 0 25.6 12.8 25.6 25.6V364.79999999999995H704c12.8 0 25.6 12.8 25.6 25.6v25.6c0 6.4-6.4 12.8-6.4 19.2h-32zM518.4 838.4C275.2 844.8 70.4 652.8 64 409.6v-6.4c0-70.4 19.2-140.8 51.2-204.8l25.6-44.8-12.8-204.8 204.8 44.8c64-12.8 121.6-25.6 185.6-25.6 236.8-6.4 435.2 179.2 441.6 409.6v25.6C953.6 646.4 761.6 838.4 518.4 838.4z m0-800c-64 0-128 6.4-185.6 32l-140.8-38.4V192l-19.2 38.4c-25.6 57.6-38.4 115.2-44.8 172.8 6.4 204.8 179.2 371.2 384 364.8h6.4c204.8 0 371.2-160 377.6-364.8 0-198.4-166.4-364.8-377.6-364.8 6.4 0 6.4 0 0 0z"  horiz-adv-x="1033" />

    
    <glyph glyph-name="tianjiahaoyou2" unicode="&#59101;" d="M102.4-96c-19.2 0-38.4 12.8-38.4 32 0 96 32 179.2 83.2 256 25.6 32 57.6 64 96 89.6 25.6 19.2 51.2 32 83.2 44.8l12.8 6.4h-6.4c-32 25.6-64 51.2-83.2 83.2-32 44.8-44.8 102.4-44.8 153.6 0 160 128 281.6 281.6 281.6s281.6-128 281.6-281.6c0-51.2-12.8-102.4-44.8-153.6-19.2-32-51.2-64-83.2-83.2l-6.4-6.4 12.8-6.4c25.6-6.4 44.8-19.2 70.4-32l6.4-6.4 6.4-6.4c6.4-6.4 12.8-12.8 12.8-25.6 0-6.4 0-19.2-6.4-25.6-6.4-6.4-19.2-12.8-25.6-12.8-6.4 0-12.8 0-19.2 6.4l-6.4 6.4c-57.6 38.4-128 57.6-192 57.6-192 0-352-160-352-352-6.4-12.8-19.2-25.6-38.4-25.6z m384 883.2C371.2 787.2 275.2 691.2 275.2 576c0-121.6 96-217.6 217.6-217.6C608 358.4 704 454.4 704 576c0 115.2-96 211.2-217.6 211.2z m332.8-876.8c-19.2 0-32 12.8-32 32v89.6h-96c-19.2 0-32 12.8-32 32s12.8 32 32 32h96v89.6c0 19.2 12.8 32 32 32s32-12.8 32-32v-89.6h96c19.2 0 32-12.8 32-32s-12.8-32-32-32h-89.6V-64c-6.4-12.8-25.6-25.6-38.4-25.6z"  horiz-adv-x="1024" />

    
    <glyph glyph-name="xiangshang" unicode="&#59099;" d="M983.04 154.112c0-8.704-3.072-16.896-9.728-23.04-12.8-12.288-32.768-11.776-45.056 1.024L512 565.76l-415.744-433.664c-12.288-12.8-32.256-13.312-45.056-1.024-12.8 12.288-13.312 32.256-1.024 45.056l438.784 457.728c6.144 6.144 14.336 9.728 23.04 9.728s16.896-3.584 23.04-9.728l438.784-457.728c6.144-6.144 9.216-14.336 9.216-22.016z"  horiz-adv-x="1024" />

    
    <glyph glyph-name="yaoqing" unicode="&#59097;" d="M243.2 723.2c-19.2 0-32-12.8-32-32v-281.6L512 230.39999999999998l294.4 179.2V691.2c0 19.2-12.8 32-32 32H243.2zM140.8 25.600000000000023c0-6.4 6.4-19.2 19.2-19.2h710.4c6.4 0 12.8 6.4 19.2 12.8V384l-358.4-217.6c-6.4 0-6.4-6.4-12.8-6.4s-12.8 0-12.8 6.4L140.8 384v-358.4z m19.2-76.8c-38.4 0-76.8 32-76.8 76.8V441.6 448h6.4l64 57.6V691.2c0 51.2 38.4 89.6 83.2 89.6h217.6l32 25.6c6.4 6.4 12.8 6.4 19.2 6.4 6.4 0 12.8 0 19.2-6.4l32-25.6h217.6c44.8 0 83.2-44.8 83.2-89.6v-172.8l70.4-57.6h6.4v-428.8c0-38.4-32-76.8-76.8-76.8l-697.6-6.4z"  horiz-adv-x="1057" />

    
    <glyph glyph-name="jiaruqiye-copy" unicode="&#59103;" d="M921.6 326.4V486.4c0 12.8-6.4 19.2-12.8 32-6.4 6.4-19.2 12.8-25.6 12.8h-96c-19.2 0-32 12.8-32 32s12.8 32 32 32h96c57.6 0 102.4-44.8 102.4-102.4v-166.4h-64zM64-25.600000000000023c-12.8 0-25.6 19.2-25.6 32s12.8 32 25.6 32h51.2V704c0 64 51.2 115.2 115.2 115.2h396.8c64 0 115.2-51.2 115.2-115.2v-377.6h-64V704c0 32-25.6 51.2-51.2 51.2H224c-25.6 0-51.2-19.2-51.2-51.2v-665.6h518.4v-64H64zM326.4 582.4c-19.2 0-32 12.8-32 32s12.8 32 32 32h217.6c12.8 0 25.6-12.8 25.6-25.6 0-6.4 0-19.2-6.4-25.6 0-6.4-6.4-6.4-19.2-12.8H326.4zM326.4 396.8c-19.2 0-32 12.8-32 32s12.8 32 32 32h217.6c19.2 6.4 32-12.8 32-32s-12.8-32-32-32H326.4zM800 6.399999999999977c-19.2 0-32 12.8-32 32V128h-89.6c-19.2 6.4-25.6 25.6-25.6 44.8 6.4 12.8 12.8 19.2 25.6 25.6H768V294.4c-6.4 19.2 6.4 38.4 25.6 38.4 19.2 6.4 38.4-6.4 38.4-25.6V204.79999999999995h89.6c19.2-6.4 25.6-25.6 25.6-44.8-6.4-12.8-12.8-19.2-25.6-25.6H832v-89.6c0-19.2-6.4-38.4-32-38.4"  horiz-adv-x="1043" />

    
    <glyph glyph-name="touxiang" unicode="&#59096;" d="M942.08 107.008c9.216 14.336 17.92 29.184 25.6 44.544 2.048 3.584 3.584 7.68 5.12 11.264 6.144 12.288 11.776 25.088 16.384 37.888 2.048 5.12 4.096 10.24 5.632 15.872 4.096 12.288 7.68 24.064 11.264 36.352 1.536 6.144 3.072 11.776 4.608 17.92 3.072 12.8 5.12 25.6 7.168 38.912 1.024 5.632 2.048 11.264 2.56 16.896 2.048 18.944 3.584 37.888 3.584 56.832C1024 666.112 794.112 896 512 896S0 666.112 0 384c0-19.456 1.536-38.4 3.584-56.832 0.512-5.632 1.536-11.264 2.56-16.896 2.048-13.312 4.096-26.112 7.168-38.912 1.536-6.144 3.072-11.776 4.608-17.92 3.072-12.288 7.168-24.576 11.264-36.352 2.048-5.12 3.584-10.752 5.632-15.872 5.12-12.8 10.752-25.6 16.384-37.888 2.048-3.584 3.584-7.68 5.632-11.264 7.68-15.36 16.384-30.208 25.6-44.544 0.512-0.512 0.512-1.024 1.024-1.536C174.592-34.816 332.288-128 512-128s337.408 93.184 429.056 233.472l1.024 1.536zM512 650.752c103.936 0 188.416-84.48 188.416-188.416 0-103.936-84.48-188.416-188.416-188.416S323.584 358.4 323.584 462.336c0 103.936 84.48 188.416 188.416 188.416zM200.704 63.488c53.248 122.368 174.592 203.776 311.296 203.776s258.048-81.92 311.296-203.776c-80.384-78.336-190.464-126.976-311.296-126.976s-230.912 48.64-311.296 126.976z"  horiz-adv-x="1024" />

    
    <glyph glyph-name="qungonggao" unicode="&#59095;" d="M783.6672 251.136a38.912 38.912 0 0 0-35.1744 21.9136 38.912 38.912 0 0 0-1.9456 30.0032c9.728 28.5696 14.592 58.624 14.592 89.344 0 36.0448-6.7584 70.9632-20.0704 103.8336a39.2704 39.2704 0 0 0 72.704 29.4912c17.152-42.3936 25.8048-87.296 25.8048-133.4784 0-39.3728-6.3488-77.9776-18.8416-114.688a39.0144 39.0144 0 0 0-37.0688-26.4192z m152.832-127.5392a39.5264 39.5264 0 0 0-35.5328 55.9104c29.184 62.72 44.5952 136.3968 44.5952 212.992 0 88.4224-21.0944 174.336-59.4944 241.8688a39.3216 39.3216 0 0 0 33.9968 58.624 39.424 39.424 0 0 0 34.2016-19.9168C999.936 592.6912 1024 495.616 1024 392.4992c0-87.9104-17.92-173.056-51.968-246.1184a39.2704 39.2704 0 0 0-35.5328-22.784zM138.8544 626.4832c-33.28 0-60.416-27.136-60.416-60.416v-337.408c0-33.28 27.136-60.416 60.416-60.416h71.8336c7.68 0 15.0528-2.1504 21.4528-6.2976l278.016-181.248 1.1776-0.6144c7.0144-3.3792 14.2848-5.12 21.6576-5.12 8.8576 0 17.8688 2.56 26.0096 7.424 18.0736 10.8544 28.8768 30.8224 28.8768 53.4016V756.8384c0 22.528-10.752 42.4448-28.7744 53.3504a50.432 50.432 0 0 1-25.9584 7.3728 50.3808 50.3808 0 0 1-21.8624-5.12l-1.024-0.512-278.3232-179.2a39.4752 39.4752 0 0 0-21.248-6.2464H138.8544z m394.24-729.9584a129.1776 129.1776 0 0 0-64.256 17.408l-269.824 176.0256H138.8544A139.008 139.008 0 0 0 0 228.8128V566.272A139.008 139.008 0 0 0 138.8544 705.024H199.168L469.1456 878.848c0.8192 0.512 1.536 0.8704 2.2528 1.2288C490.6496 890.5216 511.9488 896 532.992 896c23.04 0 45.8752-6.4 66.0992-18.432 42.0352-25.1904 67.1232-70.2976 67.1232-120.7296v-721.2032c0-50.5344-25.088-95.6416-67.072-120.6784a129.536 129.536 0 0 0-66.1504-18.432z"  horiz-adv-x="1024" />

    
    <glyph glyph-name="tianjiabiaoqing" unicode="&#59094;" d="M499.45792 896c51.648 0 101.376-7.808 148.224-22.272l-23.296-71.36a424.576 424.576 0 1 1 294.016-336.192l73.984 11.712A499.52 499.52 0 1 0 499.45792 896zM611.20192 290.624l67.008-33.408a199.808 199.808 0 0 0-357.44 0l66.944 33.408a124.864 124.864 0 0 1 223.488 0zM312.19392 571.328a62.528 62.528 0 1 0 4.608-124.928 62.528 62.528 0 0 0-4.608 124.928z m374.592 0a62.528 62.528 0 1 0 4.608-124.928 62.528 62.528 0 0 0-4.608 124.928zM911.61792 846.08v-112.384H1024.00192v-75.008l-112.448 0.064v-112.384h-74.88V658.752h-112.384v74.88l112.32 0.064V846.08h75.008z"  horiz-adv-x="1024" />

    
    <glyph glyph-name="chongshi" unicode="&#59092;" d="M512-128C229.376-128 0 101.376 0 384S229.376 896 512 896s512-229.376 512-512-229.376-512-512-512z m261.12 727.04l-38.912-31.232C679.936 640 594.944 682.496 504.832 682.496c-160.768 0-290.816-133.632-291.328-298.496 0-164.864 130.56-299.008 291.328-299.008 125.952 0 232.96 81.92 273.92 196.096 1.024 3.072-0.512 6.144-3.584 7.168l-39.424 13.824c-3.072 1.024-6.144-0.512-7.168-3.584-22.528-62.976-69.632-113.664-131.072-140.8-29.184-12.8-60.416-19.456-92.672-19.456-32.256 0-63.488 6.144-92.672 19.456-57.344 25.6-102.912 72.192-126.976 130.56-12.288 30.208-18.944 62.464-18.944 95.232 0 33.28 6.144 65.024 18.944 95.232C308.736 537.6 354.304 584.192 411.648 609.28c29.184 12.8 60.416 19.456 92.672 19.456 32.256 0 63.488-6.144 92.672-19.456 28.672-12.288 53.76-29.696 75.776-52.736 6.656-7.168 13.312-14.336 19.456-22.016l-41.984-33.28c-3.584-3.072-2.56-8.704 2.048-9.728l121.856-30.72c3.072-0.512 6.144 1.024 6.656 4.096V465.92l0.512 128.512c1.024 5.12-4.608 7.68-8.192 4.608z"  horiz-adv-x="1024" />

    
    <glyph glyph-name="tupianjiazaishibai" unicode="&#59093;" d="M908.288 788.48h-200.704l-56.832-61.952h204.8c15.872 0 29.184-13.312 29.184-29.184v-538.112l-208.384 212.48s-16.384 10.24-37.888-3.072c-12.288-14.336 59.904-69.632 49.152-89.088-14.336-25.6-216.576-236.032-216.576-236.032l-58.88-61.952h496.128c21.504 0 38.912 17.408 38.912 38.912V750.08c0 20.992-17.408 38.4-38.912 38.4zM413.184 112.64l133.12 161.28s11.776 12.288-2.048 28.16c-9.728 11.264-103.936 102.912-156.16 154.112L138.24 141.312V695.296c0 15.872 13.312 29.184 29.184 29.184h353.28l47.616 61.952H115.712c-21.504 0-38.912-17.408-38.912-38.912v-768h227.328l109.056 133.12zM617.984 544.768c0-51.2 41.472-92.16 92.16-92.16 51.2 0 92.16 41.472 92.16 92.16 0 51.2-41.472 92.16-92.16 92.16-50.688 0.512-92.16-40.96-92.16-92.16 0 0.512 0 0.512 0 0z"  horiz-adv-x="1024" />

    
    <glyph glyph-name="qiehuan-3" unicode="&#59091;" d="M621.263 755.132c106.554-10.836 193.241-75.852 211.301-186.017H771.16l99.33-148.092 99.33 148.092h-68.628C883.132 717.206 769.354 814.73 628.487 829.178c-19.866 1.806-37.926-14.448-37.926-36.12 0-19.866 12.642-37.926 30.702-37.926zM465.947 829.178H117.39c-19.866 0-34.314-16.254-34.314-37.926V458.95c0-21.672 16.254-37.926 34.314-37.926h348.557c19.866 0 34.314 16.254 34.314 37.926V791.252c0 21.672-14.448 37.926-34.314 37.926z m-34.314-334.11h-279.93V755.133h279.93V495.07z m-34.314-509.29c-119.196 10.836-211.301 90.3-214.913 222.137h66.822l-99.33 148.092-99.33-148.092h66.822c1.806-169.763 122.808-281.735 276.317-296.183 19.866-1.806 37.926 14.448 37.926 36.12-1.806 19.866-16.254 34.314-34.314 37.926zM903 318.08H554.44c-19.866 0-34.314-16.254-34.314-37.926v-332.303c0-21.672 16.254-37.926 34.314-37.926h348.557c19.866 0 34.314 16.254 34.314 37.926V280.155c0 21.672-16.254 37.926-34.314 37.926z m-34.315-334.11h-279.93V244.036h279.93v-260.063z"  horiz-adv-x="1024" />

    
    <glyph glyph-name="biaoqing1" unicode="&#59090;" d="M512 384m-512 0a512 512 0 1 1 1024 0 512 512 0 1 1-1024 0ZM814.08 271.499636C782.894545 149.224727 664.622545 58.181818 523.403636 58.181818 382.138182 58.181818 263.866182 149.224727 232.727273 271.499636h581.352727zM723.409455 570.181818c35.374545 0 64-38.167273 64-85.317818s-28.672-85.364364-64-85.364364c-35.374545 0-64 38.213818-64 85.364364 0 47.104 28.625455 85.317818 64 85.317818zM296.727273 570.181818c35.374545 0 64-38.167273 64-85.317818s-28.672-85.364364-64-85.364364C261.352727 399.499636 232.727273 437.713455 232.727273 484.864 232.727273 531.968 261.399273 570.181818 296.727273 570.181818z"  horiz-adv-x="1024" />

    
    <glyph glyph-name="shoucang-copy" unicode="&#59089;" d="M771.218286 896C678.863238 896 593.237333 850.310095 536.380952 775.216762 480.109714 850.310095 393.898667 896 301.543619 896 135.168 896 0 750.592 0 572.123429c0-106.349714 48.274286-181.49181 87.478857-241.566477 113.127619-174.86019 398.140952-391.801905 410.380191-400.822857 11.605333-9.020952 25.063619-13.214476 38.521904-13.214476s26.916571 4.193524 38.521905 13.214476c12.239238 9.020952 296.618667 226.54781 410.380191 400.822857C1024.487619 390.631619 1072.761905 465.773714 1072.761905 572.123429 1072.761905 750.592 937.593905 896 771.218286 896z"  horiz-adv-x="1072" />

    
    <glyph glyph-name="qiehuanyuyan" unicode="&#59088;" d="M875.435 575.403c-17.067 36.608-45.483 73.472-85.334 110.634l0.086 0.086a409.515 409.515 0 0 1-9.771 8.704 424.954 424.954 0 0 1-7.979 6.997l-0.256-0.085A409.173 409.173 0 0 1 512 794.667a409.045 409.045 0 0 1-157.653-31.36c-22.571-48.384 19.712-88.576 106.154-88.576 101.291 0 141.739-85.206 160.726-247.296 1.493-12.374 2.816-25.302 4.309-40.491a3978.542 3978.542 0 0 0 3.67-38.827c4.778-50.688 8.106-76.33 13.311-96.426 2.091-7.851 4.224-13.782 6.187-17.75 4.693 5.206 12.885 21.206 24.15 53.078l3.669 10.41c9.045 25.6 14.72 39.254 22.613 51.926a550.4 550.4 0 0 0 16.597 25.088c3.115 4.522 6.4 9.045 10.24 14.378l9.984 13.654c17.92 24.533 30.208 43.136 40.15 62.634 9.813 11.094 21.76 12.374 35.925 3.84 14.25-8.576 18.773-20.608 13.483-36.01-10.88-20.438-24.107-40.32-42.198-65.024l-9.813-13.526-9.728-13.525a595.127 595.127 0 0 1-14.848-22.485c-4.864-7.808-9.472-18.987-17.067-40.534l-3.712-10.368c-23.893-67.669-40.234-94.122-82.346-94.122-52.907 0-62.507 36.992-75.008 169.216l-3.67 38.656a2133.163 2133.163 0 0 1-4.138 39.381C547.328 554.155 517.973 616.021 460.5 616.021c-97.109 0-166.528 48.043-171.904 112.64a410.325 410.325 0 0 1-185.002-388.01c68.394 18.346 114.688 18.688 146.56 0.981 32.682-18.261 41.898-41.856 50.432-95.659l1.194-7.552c4.31-26.453 8.576-39.637 16.598-48.981 8.106-9.472 18.048-17.11 40.192-31.872l4.437-2.944c73.472-48.896 100.523-92.459 76.117-174.848A410.667 410.667 0 0 1 922.667 384c0 69.12-17.067 134.272-47.232 191.403zM113.963 282.667A411.52 411.52 0 0 1 382.25-5.76c16.938 54.272 2.901 75.221-51.755 111.573l-4.395 2.902c-26.624 17.706-39.509 27.648-52.266 42.538-17.11 19.968-24.022 41.216-29.952 77.739l-1.28 7.808c-5.675 36.096-10.112 47.488-21.035 53.547-16.427 9.13-50.645 8.106-107.648-7.68z m398.037-368C252.8-85.333 42.667 124.8 42.667 384S252.8 853.333 512 853.333 981.333 643.2 981.333 384 771.2-85.333 512-85.333z"  horiz-adv-x="1024" />

    
    <glyph glyph-name="fenxiang-01" unicode="&#59087;" d="M734.72-23.296H259.2256a155.2384 155.2384 0 0 0-155.0336 155.0336V607.232a155.2896 155.2896 0 0 0 155.0336 155.0848h237.7728a31.0272 31.0272 0 0 0 0-62.0544H259.2256A93.2352 93.2352 0 0 1 166.1952 607.232v-475.4944a93.2864 93.2864 0 0 1 93.0304-93.0304h475.4944a93.2864 93.2864 0 0 1 93.0304 93.0304v237.7728a31.0272 31.0272 0 1 0 62.0032 0v-237.7728a155.2384 155.2384 0 0 0-155.0336-155.0336zM407.8592 280.4224a30.72 30.72 0 0 0 0 43.8272l429.0048 428.9536a31.0272 31.0272 0 0 0 43.776-43.8272l-428.9536-428.9536a30.72 30.72 0 0 0-43.8272 0zM858.7776 700.2624h-165.4272a31.0272 31.0272 0 0 0 0 62.0544h165.4272a31.0272 31.0272 0 0 0 0-62.0544zM858.7776 534.8864a31.0272 31.0272 0 0 0-31.0272 31.0272v165.376a31.0272 31.0272 0 1 0 62.0032 0v-165.376a30.976 30.976 0 0 0-30.976-31.0272z"  horiz-adv-x="1024" />

    
    <glyph glyph-name="wenjianguoqi" unicode="&#59086;" d="M560.761905 766.780952H182.857143C136.533333 766.780952 99.961905 730.209524 99.961905 683.885714v-716.8c0-46.32381 36.571429-82.895238 82.895238-82.895238h555.885714c46.32381 0 82.895238 36.571429 82.895238 82.895238v536.380953L560.761905 766.780952zM648.533333 886.247619H238.933333C209.67619 886.247619 180.419048 874.057143 160.914286 854.552381c-21.942857-21.942857-34.133333-51.2-34.133334-80.457143v-743.619048c0-29.257143 12.190476-58.514286 31.695238-78.019047 21.942857-21.942857 48.761905-31.695238 78.019048-31.695238h590.019048c60.952381 0 112.152381 48.761905 112.152381 112.152381V598.552381L648.533333 886.247619zM889.904762 579.047619v-4.87619h-170.666667c-41.447619 0-73.142857 31.695238-75.580952 68.266666V822.857143L889.904762 579.047619z m-63.390476-611.961905H238.933333c-17.066667 0-31.695238 7.314286-43.885714 17.066667-12.190476 12.190476-17.066667 26.819048-17.066667 43.885714V774.095238c0 17.066667 7.314286 31.695238 17.066667 43.885714 12.190476 12.190476 26.819048 19.504762 43.885714 19.504762h355.961905v-195.047619c0-65.828571 56.07619-117.028571 121.904762-117.028571H889.904762v-494.933334c0-34.133333-29.257143-63.390476-63.390476-63.390476zM533.942857 310.857143l151.161905 151.161905c7.314286 7.314286 9.752381 14.628571 7.314286 24.380952-2.438095 9.752381-9.752381 14.628571-17.066667 17.066667-9.752381 2.438095-19.504762 0-24.380952-7.314286L499.809524 344.990476l-151.161905 151.161905c-7.314286 7.314286-14.628571 9.752381-24.380952 7.314286s-17.066667-7.314286-19.504762-17.066667c-2.438095-9.752381 0-19.504762 7.314285-24.380952l151.161905-151.161905-151.161905-151.161905c-7.314286-7.314286-9.752381-14.628571-7.314285-24.380952 2.438095-9.752381 9.752381-14.628571 17.066666-17.066667 9.752381-2.438095 19.504762 0 24.380953 7.314286l151.161905 151.161905 151.161904-151.161905c7.314286-7.314286 14.628571-9.752381 24.380953-7.314286 9.752381 2.438095 17.066667 9.752381 17.066666 17.066667s0 19.504762-7.314285 24.380952L533.942857 310.857143z"  horiz-adv-x="1024" />

    
    <glyph glyph-name="tianjia1" unicode="&#59085;" d="M943.542857 457.142857H585.142857V815.542857c0 43.885714-36.571429 73.142857-73.142857 73.142857s-73.142857-36.571429-73.142857-73.142857V457.142857H80.457143c-43.885714 0-73.142857-36.571429-73.142857-73.142857s36.571429-73.142857 73.142857-73.142857H438.857143v-358.4c0-43.885714 36.571429-73.142857 73.142857-73.142857s73.142857 36.571429 73.142857 73.142857V310.85714299999995h358.4c43.885714 0 73.142857 36.571429 73.142857 73.142857s-29.257143 73.142857-73.142857 73.142857z"  horiz-adv-x="1024" />

    
    <glyph glyph-name="jinzhi" unicode="&#59084;" d="M512 896C230.4 896 0 665.6 0 384s230.4-512 512-512 512 230.4 512 512S793.6 896 512 896zM92.16 384c0 230.4 189.44 419.84 419.84 419.84 97.28 0 189.44-35.84 266.24-92.16L184.32 117.75999999999999c-56.32 76.8-92.16 168.96-92.16 266.24z m419.84-419.84c-97.28 0-189.44 35.84-266.24 92.16L839.68 650.24c56.32-71.68 92.16-163.84 92.16-266.24 0-230.4-189.44-419.84-419.84-419.84z"  horiz-adv-x="1024" />

    
    <glyph glyph-name="lishi" unicode="&#59083;" d="M512-73.788235c-265.035294 0-481.882353 216.847059-481.882353 481.882353s216.847059 481.882353 481.882353 481.882353 481.882353-216.847059 481.882353-481.882353-216.847059-481.882353-481.882353-481.882353zM512 805.647059C295.152941 805.647059 120.470588 630.964706 120.470588 414.117647s174.682353-391.529412 391.529412-391.529412 391.529412 174.682353 391.529412 391.529412S728.847059 805.647059 512 805.647059z m198.776471-439.717647H512c-24.094118 0-42.164706 24.094118-42.164706 48.188235V685.176471c0 24.094118 18.070588 48.188235 42.164706 48.188235 24.094118 0 48.188235-18.070588 48.188235-48.188235v-228.894118h150.588236c24.094118 0 42.164706-18.070588 42.164705-42.164706 0-24.094118-18.070588-48.188235-42.164705-48.188235z"  horiz-adv-x="1024" />

    
    <glyph glyph-name="tianjia" unicode="&#59082;" d="M855.04 731.136c-92.16 92.16-214.528 142.848-345.088 142.848s-252.928-50.688-345.088-142.848c-92.16-92.16-142.848-214.528-142.848-345.088S72.704 133.12 164.864 40.96c92.16-92.16 214.528-142.848 345.088-142.848 130.56 0 252.928 50.688 345.088 142.848 92.16 92.16 142.848 215.04 142.848 345.088 0.512 130.048-50.688 252.928-142.848 345.088z m-37.888-652.288c-81.92-81.92-190.976-126.976-306.688-126.976s-224.768 45.056-306.688 126.976S76.8 269.824 76.8 385.536s45.056 224.768 126.976 306.688S394.752 819.2 510.464 819.2s224.768-45.056 306.688-126.976 126.976-190.976 126.976-306.688-45.056-224.256-126.976-306.688zM754.176 413.184h-217.088V629.76c0 14.848-12.288 27.136-27.136 27.136s-27.136-12.288-27.136-27.136v-217.088H266.24c-14.848 0-27.136-12.288-27.136-27.136s12.288-27.136 27.136-27.136h217.088v-217.088c0-14.848 12.288-27.136 27.136-27.136s27.136 12.288 27.136 27.136V358.4h217.088c14.848 0 27.136 12.288 27.136 27.136-0.512 15.36-12.8 27.648-27.648 27.648z"  horiz-adv-x="1024" />

    
    <glyph glyph-name="suoding" unicode="&#59081;" d="M835.072 460.288h-69.632V610.816c0 125.952-110.592 228.864-246.272 228.864-136.192 0-246.784-102.4-246.784-228.864v-150.528H202.752c-33.792 0-60.928-25.088-60.928-56.32v-412.672c0-31.232 27.136-56.832 60.928-56.832h632.832c33.792 0 60.928 25.088 60.928 56.832V403.456c-0.512 31.232-27.648 56.832-61.44 56.832z m-268.8-264.704v-93.696c0-4.096-3.584-7.68-7.68-7.68h-50.176c-4.096 0-7.68 3.584-7.68 7.68v93.696c-24.576 12.288-39.936 37.376-39.936 65.024 0 40.448 32.256 73.216 72.704 73.216s72.704-32.768 72.704-73.216c-0.512-27.648-15.872-52.736-39.936-65.024zM664.064 440.32H373.76V589.824c0 78.848 65.024 143.36 144.896 143.36 79.872 0 144.896-64.512 144.896-143.36V440.32h0.512z"  horiz-adv-x="1024" />

    
    <glyph glyph-name="shangchuanrizhi" unicode="&#59080;" d="M275.456 111.104C145.92 111.104 40.96 216.576 40.96 345.6 40.96 459.264 125.44 558.08 237.568 576.512l2.56 0.512 1.024 2.048C296.96 677.888 401.408 739.84 514.56 739.84c113.152 0 217.6-61.44 273.408-160.256l1.024-2.048 2.56-0.512c112.128-18.432 196.608-117.76 196.608-230.912 0-129.024-104.96-234.496-234.496-234.496-18.944 0-34.816 15.36-34.816 34.816 0 18.944 15.36 34.816 34.816 34.816 90.624 0 164.864 73.728 164.864 164.864 0 86.528-67.584 158.72-154.112 164.352l-20.48 1.024-8.704 18.432c-40.448 85.504-126.976 140.288-220.672 140.288S333.824 614.912 293.376 529.92l-8.704-18.432-20.48-1.536c-86.528-5.632-154.112-77.824-154.112-164.352 0-90.624 73.728-164.864 164.864-164.864 18.944 0 34.816-15.36 34.816-34.816 0.512-18.944-15.36-34.816-34.304-34.816zM394.752 131.584c-9.216 0-17.92 3.584-24.576 10.24-6.656 6.656-10.24 15.36-10.24 24.576 0 9.216 3.584 17.92 10.24 24.576l119.808 119.808c6.656 6.656 15.36 10.24 24.576 10.24s17.92-3.584 24.576-10.24l119.808-119.808c6.656-6.656 10.24-15.36 10.24-24.576 0-9.216-3.584-17.92-10.24-24.576-6.656-6.656-15.36-10.24-24.576-10.24-9.216 0-17.92 3.584-24.576 10.24l-95.232 95.232-95.232-95.232c-6.656-6.656-15.36-10.24-24.576-10.24zM514.56-28.16c-18.944 0-34.816 15.36-34.816 34.816v279.04c0 18.944 15.36 34.816 34.816 34.816 18.944 0 34.816-15.36 34.816-34.816v-279.552c0-18.944-15.872-34.304-34.816-34.304z"  horiz-adv-x="1024" />

    
    <glyph glyph-name="yuytonghua" unicode="&#59079;" d="M50.176 450.56c61.44-142.336 375.296-542.208 662.528-559.104 149.504-7.168 235.52 135.168 238.08 176.64 0 36.864-54.272 86.016-117.76 135.168-66.048 54.272-166.912 88.576-194.048 56.32-24.576-29.184-46.592-51.2-73.728-49.152-93.184 12.288-161.792 98.304-191.488 142.336-64 95.744-49.152 120.32-22.016 135.168 49.152 27.136 73.728 105.472 22.016 164.352-49.152 58.88-137.216 230.4-252.416 139.776C13.312 706.048-13.312 600.576 50.176 450.56zM81.92 629.76c12.288 54.272 36.864 83.456 76.288 112.64 54.272 39.424 108.032-39.424 162.304-125.44 19.456-31.744 34.304-61.44-12.288-90.624-39.424-24.576-49.152-83.456-17.408-149.504 44.032-93.184 181.76-238.08 279.552-235.52 54.272 2.56 86.016 44.032 100.864 58.88 19.456 19.456 73.728-12.288 112.64-41.984 46.592-31.744 102.912-78.336 95.744-90.624-14.848-29.184-27.136-49.152-56.32-71.168-22.016-16.896-58.88-41.472-105.472-39.424-264.704 16.896-535.04 370.176-595.968 490.496C91.648 509.44 74.752 588.288 81.92 629.76zM956.416 385.024c-19.968 0-35.84 15.872-35.84 35.84 0 210.432-166.4 381.44-370.688 381.44-19.968 0-35.84 15.872-35.84 35.84s15.872 35.84 35.84 35.84c244.224 0 442.368-203.264 442.368-453.12 0-19.968-16.384-35.84-35.84-35.84zM781.312 320.51199999999994c-19.968 0-35.84 15.872-35.84 35.84 0 150.528-119.296 272.896-265.216 272.896-19.968 0-35.84 15.872-35.84 35.84s15.872 35.84 35.84 35.84c185.856 0 336.896-154.624 336.896-344.576 0-19.968-15.872-35.84-35.84-35.84z"  horiz-adv-x="1024" />

    
    <glyph glyph-name="tupianjiazaishibai-2" unicode="&#59078;" d="M1022.248199 893.659429L579.880199 894.829714 512.588771 708.169143l13.458285-135.168-76.068571-78.994286 46.226286 89.526857-52.662857 133.412572 46.811428 178.468571-339.968-1.755428C70.220771 893.074286-0.581515 831.049143 0.003628 750.884571l2.925714-730.258285C3.514485-59.538286 65.539628-128 146.289342-128h875.958857c80.164571 0 146.285714 65.536 146.285715 146.285714V747.958857c-0.585143 80.164571-66.121143 145.700571-146.285715 145.700572zM157.992199 819.346286l235.227429 1.170285-10.532572-119.369142L455.244771 580.022857l-53.833143-160.329143L562.325914 556.617143l10.532571 155.648L631.957914 820.516571h390.290285c36.278857 0 73.142857-36.278857 73.142857-73.142857v-654.189714l-180.809142 231.131429c-21.650286 36.278857-65.536 36.278857-94.793143 7.021714l-204.214857-204.214857-212.406858 270.336c-21.650286 29.257143-58.514286 29.257143-87.771428 0l-238.738286-291.986286 2.340572 640.146286c0.585143 43.300571 35.108571 73.728 78.994285 73.728zM701.589914 605.769143c0-63.195429 51.492571-114.688 114.688-114.688s114.688 51.492571 114.688 114.688S879.473342 720.457143 816.277914 720.457143s-114.688-51.492571-114.688-114.688z"  horiz-adv-x="1170" />

    
    <glyph glyph-name="xiazaizhong" unicode="&#59076;" d="M701.44 147.456c-11.264 0-21.504 4.096-29.184 12.288l-156.672 156.672-156.672-156.672c-7.68-7.68-18.432-12.288-29.184-12.288s-21.504 4.096-29.184 12.288c-7.68 7.68-12.288 18.432-12.288 29.184s4.096 21.504 12.288 29.184l156.672 156.672-157.184 156.672c-7.68 7.68-12.288 18.432-12.288 29.184s4.096 21.504 12.288 29.184c7.68 7.68 18.432 12.288 29.184 12.288s21.504-4.096 29.184-12.288l156.672-156.672 156.672 156.672c7.68 7.68 17.92 11.776 29.184 11.776s21.504-4.096 29.184-11.776c16.384-16.384 16.384-42.496 0-58.368L573.44 374.784l156.672-156.672c15.872-16.384 15.872-42.496 0-58.368-7.168-8.192-17.92-12.288-28.672-12.288zM515.584-103.936c-263.68 0-478.72 214.528-478.72 478.72S251.392 853.504 515.584 853.504s478.72-214.528 478.72-478.72-215.04-478.72-478.72-478.72z m0 880.64c-221.696 0-401.92-180.224-401.92-401.92s180.224-401.92 401.92-401.92 401.92 180.224 401.92 401.92c-0.512 221.696-180.736 401.92-401.92 401.92z"  horiz-adv-x="1024" />

    
    <glyph glyph-name="xiazai3" unicode="&#59077;" d="M941.056 399.36c-25.6 0-46.08-20.48-46.08-46.08v-296.96h-737.28v304.64c0 25.6-20.48 46.08-46.08 46.08s-46.08-20.48-46.08-46.08V10.24c0-25.6 20.48-46.08 46.08-46.08h829.44c25.6 0 46.08 20.48 46.08 46.08v343.04c0 25.6-20.48 46.08-46.08 46.08zM504.832 186.368c11.264-11.776 30.208-12.8 41.984-1.536l1.024 1.024 245.76 252.928c5.632 5.632 7.168 14.848 3.072 21.504-3.072 5.632-9.216 8.704-15.36 8.704h-208.384V814.08c0 25.6-20.48 46.08-46.08 46.08s-46.08-20.48-46.08-46.08v-345.088h-32.256c0-0.512-0.512 0-0.512 0H272.384c-8.192 0-15.36-5.12-17.408-12.8-1.536-6.144 0-12.8 4.096-17.408l245.76-252.416z"  horiz-adv-x="1024" />

    
    <glyph glyph-name="zhiding" unicode="&#59075;" d="M1021.681015-128V896H0.199461l1021.481554-1024z"  horiz-adv-x="1038" />

    
    <glyph glyph-name="xuanze" unicode="&#59072;" d="M873.984 257.536L512-104.96l-361.984 361.984h723.968zM873.984 469.504L512 831.488 150.016 469.504h723.968z"  horiz-adv-x="1024" />

    
    <glyph glyph-name="gouxuan" unicode="&#59073;" d="M128 896h768c68.096 0 128-59.904 128-128v-768c0-68.096-59.904-128-128-128H128c-68.096 0-128 59.904-128 128V768C0 836.096 59.904 896 128 896zM452.096 264.704L290.304 435.2c-25.6 25.6-68.096 25.6-93.696 0s-25.6-68.096 0-93.696L409.6 128c25.6-25.6 68.096-25.6 93.696 0l324.096 384c25.6 25.6 16.896 68.096-8.704 93.696-34.304 16.896-68.096 16.896-93.696-8.704l-272.896-332.288z"  horiz-adv-x="1024" />

    
    <glyph glyph-name="fuzhi" unicode="&#59074;" d="M897 545.6H643.5c-12.7 0-23 10.3-23 23V789.7c0 12.7 10.3 23 23 23s23-10.3 23-23v-198.1H897c12.7 0 23-10.3 23-23s-10.3-23-23-23zM842.1 77H365.8c-47.9 0-86.9 39-86.9 86.8V745.3c0 47.9 39 86.8 86.9 86.8h257.4c21.2 0 41.7-7.7 57.6-21.8l219-193.7c18.6-16.5 29.3-40.2 29.3-65v-387.8c-0.1-47.8-39-86.8-87-86.8zM365.8 786.2c-22.6 0-40.9-18.3-40.9-40.8v-581.5c0-22.5 18.3-40.8 40.9-40.8h476.4c22.6 0 40.9 18.3 40.9 40.8V551.6c0 11.7-5 22.8-13.8 30.6l-219 193.7c-7.5 6.6-17.1 10.3-27.1 10.3H365.8zM661.8-63.6H185.5c-47.9 0-86.9 39-86.9 86.8V604.8c0 47.9 39 86.8 86.9 86.8h110.1c12.7 0 23-10.3 23-23s-10.3-23-23-23H185.5c-22.6 0-40.9-18.3-40.9-40.8v-581.5c0-22.5 18.3-40.8 40.9-40.8h476.4c22.6 0 40.9 18.3 40.9 40.8v68.6c0 12.7 10.3 23 23 23s23-10.3 23-23v-68.6c-0.1-47.9-39.1-86.9-87-86.9z"  horiz-adv-x="1024" />

    
    <glyph glyph-name="xinjianbiji" unicode="&#59070;" d="M864.768 64.512H151.04c-17.408 0-31.232-13.824-31.232-31.232 0-17.408 13.824-31.232 31.232-31.232h713.728c17.408 0 31.232 13.824 31.232 31.232 0 16.896-13.824 31.232-31.232 31.232zM321.024 166.4l203.776 86.528c3.072 1.536 6.144 3.584 8.704 6.144l344.064 344.064c24.576 24.576 24.576 64 0 88.576L808.96 759.808c-24.576 24.064-64 24.064-88.576 0L376.832 415.744c-2.56-2.56-4.608-5.632-6.144-8.704l-86.528-203.776c-4.608-10.24-2.048-22.528 6.144-30.208 8.192-8.704 19.968-10.752 30.72-6.656z m443.904 548.864l68.608-68.608-53.76-53.76-68.608 68.608 53.76 53.76z m-339.456-338.944l241.664 241.664 68.608-68.608-241.664-241.664-118.784-50.176 50.176 118.784z"  horiz-adv-x="1024" />

    
    <glyph glyph-name="new" unicode="&#59071;" d="M385.343328 896c10.746627 0 21.493253-4.605697 26.098951-13.817091l3.070465-4.605698 265.595202-597.205397 130.494753 591.064468c3.070465 10.746627 10.746627 18.422789 19.958021 23.028486l4.605697 1.535232h158.128935c16.887556 0 32.23988-13.817091 32.23988-30.704648v-6.140929L813.673163-101.901049c-3.070465-12.281859-13.817091-21.493253-26.09895-24.563719H638.656672c-10.746627 0-21.493253 4.605697-26.098951 13.817092l-3.070465 4.605697-264.05997 597.205397L214.932534-101.901049c-3.070465-10.746627-10.746627-18.422789-19.958021-23.028486l-4.605697-1.535233H32.23988c-16.887556 0-32.23988 13.817091-32.23988 30.704648v6.14093L211.862069 871.436282c3.070465 12.281859 13.817091 21.493253 26.09895 24.563718h6.14093 141.241379z m1458.470765 0c10.746627 0 21.493253-6.14093 26.09895-13.817091 4.605697 6.14093 12.281859 10.746627 19.958021 12.281859H2057.211394c15.352324 0 29.169415-10.746627 30.704648-24.563719v-6.140929l6.14093-557.289355 287.088455 571.106446c3.070465 7.676162 10.746627 12.281859 16.887557 15.352324l6.140929 1.535233h115.142429c15.352324 0 27.634183-9.211394 30.704648-23.028486v-4.605697l35.310344-560.35982 257.919041 571.106446c3.070465 7.676162 10.746627 13.817091 18.422788 16.887557l4.605698 1.535232H3030.548726c21.493253 0 36.845577-19.958021 30.704647-38.38081l-1.535232-4.605697-460.569715-961.055472c-4.605697-9.211394-13.817091-15.352324-23.028486-16.887556H2444.089955c-15.352324 0-27.634183 9.211394-30.704648 23.028486v4.605697l-32.23988 577.247376-291.694153-589.529235c-3.070465-7.676162-10.746627-12.281859-18.422788-15.352324l-6.14093-1.535233H1934.392804c-15.352324 0-27.634183 9.211394-30.704648 24.563719v4.605697L1866.842579 819.238381l-21.493254-98.254873c-3.070465-12.281859-13.817091-21.493253-26.09895-24.563718H1352.53973l-46.056971-213.397301h376.131934c16.887556 0 29.169415-12.281859 32.23988-26.098951v-10.746626l-29.169416-128.959521c-3.070465-12.281859-13.817091-21.493253-26.09895-24.563718H1263.496252l-49.127436-221.073463h448.287856c16.887556 0 29.169415-12.281859 32.23988-26.098951v-10.746626l-30.704648-138.170915c-3.070465-12.281859-13.817091-21.493253-26.09895-24.563718h-644.797602c-16.887556 0-32.23988 13.817091-32.23988 30.704648v6.140929L1172.917541 871.436282c3.070465 12.281859 13.817091 21.493253 26.098951 24.563718h644.797601z"  horiz-adv-x="3070" />

    
    <glyph glyph-name="qunwenjian" unicode="&#59069;" d="M372.736 192c-2.56 1.024-5.12 2.048-7.168 3.072-13.824 5.632-28.672 5.12-41.984-1.536l-51.2-34.304 12.8 52.736 0.512 1.536c3.072 15.872-2.048 32.256-13.312 44.032-45.056 45.568-70.144 103.424-70.144 163.328C202.24 558.592 331.264 670.72 490.496 670.72c114.688 0 214.016-58.368 260.096-143.36 31.232-9.216 60.416-23.04 86.528-40.96-34.304 143.36-176.64 250.88-346.624 250.88-195.584 0-354.304-142.336-354.304-316.928 0-74.752 29.184-146.432 82.432-203.264l-24.576-99.84c-4.608-17.92 2.56-35.84 17.408-46.592 7.68-5.12 16.384-7.68 25.088-7.68 8.704 0 16.896 2.56 24.576 7.68l87.552 59.392c21.504-8.704 44.032-14.848 67.072-19.456-18.944 24.576-33.792 52.224-43.008 81.408zM829.952 18.944c-7.168 0-14.848 2.048-21.504 6.656l-55.296 37.376c-29.696-11.264-61.44-16.896-94.208-16.896-136.192 0-246.784 99.328-246.784 221.696s110.592 221.696 246.784 221.696S906.24 390.144 906.24 267.776c0-50.688-19.456-99.84-54.784-139.264l15.36-62.976c3.584-15.36-2.048-31.232-15.36-39.936-6.144-4.608-13.824-6.656-21.504-6.656z m-170.496 409.088c-102.4 0-185.344-71.68-185.344-160.256s83.456-160.256 185.344-160.256c28.16 0 55.296 5.12 80.896 15.872 11.264 4.608 24.064 4.096 35.328-1.536l3.072-2.048 14.336-9.728-4.096 15.872c-2.56 13.312 1.536 27.136 11.264 36.864 28.672 29.184 44.544 66.048 44.544 103.936 0 89.6-83.456 161.28-185.344 161.28z"  horiz-adv-x="1024" />

    
    <glyph glyph-name="wenjianleixing" unicode="&#59067;" d="M354.304 197.632a34.304 34.304 0 0 0 0 68.608h230.4a34.304 34.304 0 0 0 0-68.608h-230.4z m10.24 207.872l-10.24 0.512a34.304 34.304 0 0 0 0 68.608h92.16c18.944 0 34.304-15.36 34.304-34.304 0-9.216-3.584-17.92-10.24-24.576-6.656-6.656-15.36-10.24-24.576-10.24H364.544zM237.056-46.08c-57.344 0-103.936 46.592-103.936 103.936V684.032c0 57.344 46.592 103.936 103.936 103.936h381.44l279.552-263.68v-466.432c0-57.344-46.592-103.936-103.936-103.936H237.056z m-10.24 763.904c-14.336-4.608-25.088-17.92-25.088-33.792v-626.688c0-19.456 15.872-35.328 35.328-35.328H793.6c19.456 0 35.328 15.872 35.328 35.328v404.48h-174.592c-53.248 0-97.792 40.448-103.424 93.696l-0.512 10.24v153.6H226.816v-1.536z m392.192-152.064c0-17.408 11.776-31.744 28.672-34.304h0.512l6.656-0.512h136.192l-172.032 162.304v-127.488z"  horiz-adv-x="1024" />

    
    <glyph glyph-name="fasongren" unicode="&#59068;" d="M287.232-15.36c-77.312 0-140.288 64.512-140.288 143.36s62.976 143.36 140.288 143.36h449.536c77.312 0 140.8-64.512 140.8-143.36s-62.976-143.36-140.8-143.36H287.232z m19.968 224.768c-49.664 0-90.112-36.864-90.112-82.432 0-45.568 40.448-82.432 90.112-82.432h409.088c49.664 0 90.112 36.864 90.112 82.432 0 45.568-40.448 82.432-90.112 82.432H307.2z m204.288 116.736c-125.952 0-228.352 102.4-228.352 228.352C283.136 680.96 385.536 783.36 511.488 783.36c126.464 0 228.864-102.4 228.864-227.84 0.512-126.464-102.4-229.376-228.864-229.376z m0 391.68c-44.032 0-84.992-16.896-115.712-47.616-30.72-30.72-47.616-71.168-47.104-114.688 0-90.112 73.216-163.328 163.328-163.328s163.328 72.704 163.328 162.304c-0.512 90.112-73.728 163.328-163.84 163.328z"  horiz-adv-x="1024" />

    
    <glyph glyph-name="wendang" unicode="&#59064;" d="M806.912 506.88c10.24-1.536 20.48-4.096 30.72-9.216s18.944-11.264 26.624-19.968c7.68-8.704 13.312-19.456 16.896-32.768 3.584-13.312 4.096-29.184 1.536-47.616-1.024-4.608-3.584-16.896-6.656-35.328l-11.264-65.024c-4.096-24.064-9.216-49.664-14.848-75.776-5.12-26.112-10.24-48.128-15.36-66.56-3.072-10.752-6.656-22.016-11.776-33.28-5.12-11.264-11.776-21.504-19.968-30.72-8.192-9.216-17.408-16.896-29.184-23.04-12.288-6.144-26.624-9.728-40.448-9.216H285.696c-11.264 0-23.552 3.072-35.328 8.192-26.112 11.776-47.104 32.256-58.368 58.368-6.656 14.848-10.24 30.72-9.728 47.104V557.568c0 36.864 9.216 65.024 26.624 85.504 17.408 20.48 43.008 30.72 75.264 30.72h398.336c11.776 0 24.064-2.56 36.864-7.68s24.064-11.776 34.304-20.992c10.24-9.216 18.432-19.456 25.088-31.232s9.728-24.576 9.728-38.4v-10.24h-41.984c-21.504 0-46.592 0-75.776 0.512-30.72 0.512-61.44 0.512-92.16 0.512-32.768 0-63.488 0-91.136 0.512-28.672 0.512-52.736 0.512-73.216 0.512h-36.864c-13.824 0-24.576-4.608-32.768-14.848-7.68-10.24-13.824-23.04-17.92-38.912-4.096-16.896-9.216-35.84-14.848-55.296-5.12-19.456-10.24-37.376-14.848-54.272-5.12-19.456-10.752-38.912-16.384-57.344-1.024-3.584-1.536-7.68-1.536-11.264 0-10.24 3.584-18.432 9.728-25.6 5.632-6.656 14.336-10.24 23.552-10.24 16.896 0 28.16 11.264 33.792 34.816L389.12 507.904c70.144-0.512 134.144-1.024 192.512-1.024h225.28z"  horiz-adv-x="1024" />

    
    <glyph glyph-name="liaotianshezhi" unicode="&#59065;" d="M650.752-3.072c-23.04 0-46.08 9.216-60.416 24.576l-8.704 8.704c-16.896 15.36-40.448 24.576-65.024 24.576-25.088 0-48.64-9.216-66.56-26.112l-7.168-7.68c-20.48-20.992-57.856-30.208-85.504-19.968-1.536 0.512-17.92 6.656-53.76 26.624-35.328 19.968-49.152 31.232-50.688 32.256-23.04 18.944-33.792 54.784-24.576 82.944l3.584 11.264c5.632 22.016 1.536 46.592-10.752 68.096-12.288 20.992-32.256 36.352-56.32 43.52l-10.24 2.048c-29.184 6.144-55.296 33.28-60.928 62.464-0.512 1.536-3.072 18.944-3.072 58.88s3.072 57.344 3.072 59.392c5.632 28.672 31.232 55.808 60.928 61.952l12.288 2.56c22.016 6.144 41.984 22.016 54.272 43.008 12.288 20.992 15.872 45.568 10.24 69.632l-3.072 10.24c-8.704 28.16 2.048 63.488 25.088 82.432 1.024 1.024 14.848 12.288 50.176 32.256s52.224 26.112 53.76 26.624c28.672 10.24 65.536 0.512 85.504-19.968l8.704-9.216c16.384-15.36 39.936-24.576 65.024-24.576 24.576 0 48.128 9.216 66.048 25.6l7.68 8.192c20.48 20.992 57.856 30.208 85.504 19.968 2.048-0.512 18.432-6.656 53.248-26.624 35.328-19.968 49.152-31.232 50.688-32.256 23.04-18.944 33.792-54.784 24.576-82.944l-3.584-11.264c-5.632-23.04-1.536-47.616 10.752-68.096 12.288-20.992 32.256-36.352 55.808-43.008l10.752-2.56c29.184-6.144 55.296-33.28 60.416-61.952 0.512-2.048 3.072-18.944 3.584-58.88 0-40.448-3.072-57.344-3.072-59.392-5.632-28.672-31.232-55.808-60.416-61.952l-12.288-2.56c-22.016-6.656-41.984-22.016-54.272-43.008-12.288-20.992-15.872-45.568-10.24-69.12l3.072-10.24c8.704-28.16-2.048-63.488-25.088-82.432-1.024-1.024-14.848-12.288-50.688-32.256-35.328-19.968-52.224-26.112-53.76-26.624-7.168-3.584-15.872-5.12-24.576-5.12m-134.144 119.808c40.96 0 79.872-15.36 109.568-43.008l9.728-10.24c2.048-2.048 8.192-4.608 14.336-4.608 2.048 0 3.584 0.512 4.096 0.512 0 0 13.824 5.12 44.032 22.016 30.208 16.896 41.472 26.112 41.472 26.112 4.096 3.072 6.656 12.8 5.12 17.92l-3.584 12.288c-9.728 40.96-3.584 81.408 16.384 115.712 20.48 34.816 53.248 59.904 92.672 71.68l13.824 3.072c4.608 1.024 12.288 8.704 12.8 13.312 0 0 2.56 14.336 2.56 48.128 0 34.304-2.56 48.128-2.56 48.64-1.024 4.608-8.192 11.776-12.8 12.8l-13.312 3.072c-40.96 11.776-73.728 37.376-94.208 71.68-20.48 35.328-26.624 75.776-16.896 114.688 0 1.024 0.512 1.536 0.512 2.56l4.096 11.776c1.024 4.096-1.536 13.824-5.632 16.896 0 0-11.776 9.216-41.472 26.112-30.208 16.896-44.032 22.528-44.032 22.528s-1.024 0.512-3.584 0.512c-6.144 0-12.288-2.56-14.336-5.12l-8.704-9.216c-30.72-28.672-69.632-44.032-110.592-44.032-40.96 0-79.872 15.36-109.568 43.008l-9.728 10.24c-2.048 2.048-8.192 4.608-14.336 4.608-2.56 0-3.584-0.512-4.096-0.512 0 0-13.824-5.12-44.032-22.016-30.208-16.896-41.472-26.112-41.472-26.112-4.096-3.072-6.656-12.8-5.12-17.408l3.584-11.776c9.728-40.96 4.096-81.92-16.384-116.224-20.48-34.816-53.248-60.416-92.672-71.68l-14.336-3.072c-4.608-1.024-12.288-8.704-12.8-13.312 0 0-2.56-14.336-2.56-48.128 0-34.304 2.56-48.128 2.56-48.64 1.024-4.608 7.68-11.776 12.8-12.8l12.288-2.56c41.472-11.776 74.24-37.376 94.72-72.192s26.624-75.776 16.896-114.688l-4.096-13.312c-1.536-5.12 1.536-14.848 5.12-17.92 0 0 11.264-9.216 41.472-26.112 30.208-16.896 44.032-22.016 44.032-22.016s1.536-0.512 3.584-0.512c6.144 0 12.288 2.56 14.336 5.12l8.192 8.704c32.256 28.16 71.168 43.52 112.128 43.52zM516.608 204.8C412.672 204.8 327.68 287.744 327.68 389.632c0 101.888 84.48 184.832 188.928 184.832 103.936 0 188.928-82.944 188.928-184.832-0.512-102.4-84.992-184.832-188.928-184.832m0 308.224c-69.632 0-125.952-55.296-125.952-123.392s56.32-123.392 125.952-123.392c69.12 0 125.952 55.296 125.952 123.392s-56.32 123.392-125.952 123.392z"  horiz-adv-x="1024" />

    
    <glyph glyph-name="zhaopian" unicode="&#59066;" d="M795.648 656.384h-50.176c-1.024 0-2.048 0.512-2.048 1.536-21.504 52.736-70.144 86.016-123.904 86.016H407.552c-53.76 0-102.4-33.28-124.416-86.016-0.512-1.024-1.536-1.536-2.048-1.536h-49.664c-74.24 0.512-135.68-63.488-136.192-143.36v-356.864c0.512-79.36 61.44-143.872 136.192-143.36h564.736c74.24-0.512 135.68 64 136.192 143.36V513.024c-1.024 79.872-62.464 143.872-136.704 143.36z m71.168-500.736c-0.512-40.96-32.256-74.24-71.168-73.728H230.912c-38.4-0.512-70.144 32.256-71.168 73.728V513.024c0.512 40.96 32.256 74.24 71.168 73.728h50.176c26.624 0 50.688 16.896 61.44 42.496 11.264 27.648 37.376 44.544 65.536 44.544h210.944c28.16 0 53.76-17.408 65.536-44.544 11.264-26.112 34.816-42.496 61.44-42.496h50.176c38.4 0.512 70.144-32.256 71.168-73.728l-0.512-357.376zM511.488 513.536c-92.16 0-166.912-79.36-166.912-177.664s74.24-178.176 166.4-178.176 166.912 79.36 166.912 177.664c0 98.816-74.24 178.176-166.4 178.176z m0-286.208c-56.32 0-101.376 48.64-101.376 108.544S455.68 444.416 511.488 444.416s101.376-48.64 101.376-108.544c-0.512-59.904-45.056-108.544-101.376-108.544z m235.52 310.272c-20.48 0-36.864-17.408-36.864-39.424 0-21.504 16.384-39.424 36.864-39.424s36.864 17.408 36.864 39.424c0 21.504-16.896 39.424-36.864 39.424z"  horiz-adv-x="1024" />

    
    <glyph glyph-name="bianji" unicode="&#59050;" d="M244.736-64c-96.256 0-174.592 78.336-174.592 175.104V626.688c0 96.768 78.336 175.104 174.592 175.104h257.536c22.528 0 40.448-17.92 40.448-40.448s-17.92-40.448-40.448-40.448H244.736c-51.2 0-93.696-41.984-94.208-94.208v-515.584c0-51.712 42.496-94.208 94.208-94.208h515.584c51.2 0 93.696 41.984 94.208 94.208V368.64c0 22.528 17.92 40.448 40.448 40.448s40.448-17.92 40.448-40.448v-257.536c0-96.256-78.336-174.592-174.592-175.104H244.736z m146.432 292.864c-7.68 0.512-14.336 4.096-19.456 10.24-5.12 5.632-7.168 13.312-6.656 21.504l12.288 139.776c0.512 6.656 3.584 12.8 8.704 17.92l195.584 197.12 170.496 170.496c9.728 9.728 23.04 15.36 36.864 15.36s26.624-5.12 36.864-15.36l47.104-47.104 48.128-49.152c19.968-19.968 19.968-53.248 0-72.704l-366.592-366.592c-4.608-4.608-11.264-8.192-17.408-8.704l-140.288-12.8h-5.632z m247.808 329.728l-182.784-183.296-5.632-58.88 58.88 5.12 333.312 333.312-53.76 53.76-150.016-150.016z"  horiz-adv-x="1024" />

    
    <glyph glyph-name="cebiangengduo" unicode="&#59060;" d="M756.224 363.52c0-61.952 50.176-111.616 111.616-111.616s111.616 50.176 111.616 111.616-50.176 111.616-111.616 111.616-111.616-49.664-111.616-111.616zM420.864 363.52c0-61.952 50.176-111.616 111.616-111.616s111.616 50.176 111.616 111.616S593.92 475.136 532.48 475.136 420.864 425.472 420.864 363.52zM85.504 363.52c0-61.952 50.176-111.616 111.616-111.616S308.736 302.08 308.736 363.52s-50.176 111.616-111.616 111.616-111.616-49.664-111.616-111.616z"  horiz-adv-x="1024" />

    
    <glyph glyph-name="dianhua2" unicode="&#59061;" d="M619.008 227.328c1.536 1.024 18.432 10.752 23.04 13.824 7.68 4.608 15.36 8.704 24.064 12.288 52.736 22.528 99.328 6.656 160.768-60.928 38.4-41.472 49.152-78.848 34.816-112.128-11.264-24.576-32.256-41.472-69.632-62.976-2.56-1.536-24.064-13.312-29.696-16.384-87.552-50.688-287.744 65.536-431.616 263.68-144.896 198.656-181.76 410.112-93.696 461.824l11.776 7.168 12.8 7.68c44.544 27.136 73.216 38.4 107.52 32.768 34.304-5.632 62.976-29.184 87.552-71.68 51.2-91.136 40.448-134.144-26.112-173.568-4.608-3.072-21.504-12.8-23.04-13.824-15.872-9.728 11.264-72.704 75.264-160.256 64-89.088 117.76-137.728 136.192-127.488z"  horiz-adv-x="1024" />

    
    <glyph glyph-name="guanlipingtai" unicode="&#59062;" d="M506.88 781.824c8.704 4.608 18.944 4.608 27.648 0l370.176-184.832c15.36-7.68 21.504-26.112 13.824-41.472-3.072-6.144-7.68-10.752-13.824-13.824l-370.176-184.832c-8.704-4.608-18.944-4.608-27.648 0L137.216 541.696c-15.36 7.68-21.504 26.112-13.824 41.472 3.072 6.144 7.68 10.752 13.824 13.824L506.88 781.824zM219.648 569.344l301.056-150.528 301.056 150.528-301.056 150.528-301.056-150.528z m301.056-520.704l356.352 178.176c15.36 7.68 33.792 1.536 41.472-13.824s1.536-33.28-13.824-40.96l-370.176-184.832c-8.704-4.608-18.944-4.608-27.648 0l-370.176 184.832c-15.36 7.68-21.504 26.112-13.824 41.472s26.112 21.504 41.472 13.824h0.512l355.84-178.688z m0 185.344l356.352 178.176c15.36 7.68 33.792 1.536 41.472-13.312 7.68-15.36 1.536-33.792-13.312-41.472h-0.512l-370.176-184.832c-8.704-4.608-18.944-4.608-27.648 0l-370.176 184.832c-15.36 7.68-20.992 26.112-13.312 41.472 7.68 14.848 26.112 20.992 40.96 13.824l356.352-178.688z"  horiz-adv-x="1024" />

    
    <glyph glyph-name="tianjiahaoyou" unicode="&#59063;" d="M169.984 10.24c-17.408 0-30.72 13.312-30.72 30.72 0 75.264 23.04 144.384 69.12 204.288 20.992 28.672 48.128 53.76 76.8 73.216 20.992 15.36 44.032 27.136 67.584 36.352-27.136 17.408-50.176 40.448-67.584 67.584-23.04 36.352-36.352 80.896-36.352 123.392 0 126.976 103.936 230.912 230.912 230.912s230.912-103.936 230.912-230.912c0-44.032-13.312-86.528-36.352-123.392-17.408-27.136-40.448-50.176-67.584-67.584 20.992-7.68 40.448-19.456 59.904-30.72l5.632-4.096c7.68-5.632 11.776-11.776 13.312-20.992 2.048-7.68 0-17.408-5.632-23.04-5.632-7.68-15.36-13.312-25.088-13.312-5.632 0-13.312 2.048-17.408 5.632l-5.632 4.096c-44.032 28.672-98.304 46.08-152.064 46.08-152.064 0-276.992-124.928-276.992-276.992-0.512-17.92-13.824-31.232-32.768-31.232zM479.744 716.8C387.072 716.8 312.32 641.536 312.32 549.376s75.264-167.424 167.424-167.424 167.424 75.264 167.424 167.424S571.904 716.8 479.744 716.8z m261.632-702.464c-17.408 0-30.72 13.312-30.72 30.72V112.64h-73.216c-17.408 0-30.72 13.312-30.72 30.72s13.312 30.72 30.72 30.72h73.216v67.584c0 15.36 13.312 28.672 28.672 28.672 17.408 0 30.72-13.312 30.72-30.72v-67.584H839.68c17.408 0 30.72-13.312 30.72-30.72s-13.312-30.72-30.72-30.72h-69.12V40.96c0-13.312-13.824-26.624-29.184-26.624z"  horiz-adv-x="1024" />

    
    <glyph glyph-name="wenjianjia1" unicode="&#58958;" d="M515.584 628.224c7.68-25.6 31.744-42.496 57.344-42.496h245.248c0 33.28-27.136 60.416-60.416 60.416H509.44l6.144-17.92zM491.52 707.072h266.24c66.56 0 121.344-54.784 121.344-121.344v-24.064c28.672-22.528 48.64-57.344 48.64-96.768v-363.52c0-66.56-54.784-121.344-121.344-121.344H229.376c-66.56 0-121.344 54.784-121.344 121.344V646.656c0 66.56 54.784 121.344 121.344 121.344h156.16c43.52-0.512 84.48-24.576 105.984-60.928z m-105.984 0H229.376c-33.28 0-60.416-27.136-60.416-60.416v-545.28c0-33.28 27.136-60.416 60.416-60.416h575.488c33.28 0 60.416 27.136 60.416 60.416v363.52c0 33.28-27.136 60.416-60.416 60.416h-228.864c-53.248 0-99.84 34.816-115.2 84.992l-18.432 54.784c-7.168 25.088-29.696 41.984-56.832 41.984zM289.792 192H532.48c16.896 0 30.208-13.824 30.208-30.208 0-16.896-13.824-30.208-30.208-30.208H289.792c-16.896 0-30.208 13.824-30.208 30.208s13.824 30.208 30.208 30.208z"  horiz-adv-x="1024" />

    
    <glyph glyph-name="xiazai2" unicode="&#58959;" d="M329.4 449.8l156.5-156.6c6.6-6.6 15.2-9.8 23.8-9.8 0.3 0 0.5 0.1 0.8 0.1s0.5-0.1 0.8-0.1c8.7 0 17.3 3.3 23.8 9.8l156.5 156.6c13.2 13.2 13.2 34.5 0 47.7-13.2 13.2-34.5 13.2-47.7 0l-100-100V760c0 18.6-15.1 33.7-33.7 33.7s-33.7-15.1-33.7-33.7v-361.9L377 497.6c-13.2 13.2-34.5 13.2-47.7 0-13.1-13.3-13.1-34.7 0.1-47.8zM815.7 625.5H715.1c-18.6 0-33.7-15.1-33.7-33.7s15.1-33.7 33.7-33.7h100.6c18.6 0 33.7-15.1 33.7-33.7v-438.5c0-18.6-15.2-33.7-33.7-33.7H209.4c-18.6 0-33.7 15.1-33.7 33.7V524.4c0 18.6 15.2 33.7 33.7 33.7h98.9c18.6 0 33.7 15.1 33.7 33.7s-15.1 33.7-33.7 33.7h-98.9c-55.8 0-101.2-45.4-101.2-101.2v-438.5c0-55.8 45.4-101.2 101.2-101.2h606.5c55.8 0 101.2 45.4 101.2 101.2V524.4c-0.1 55.8-45.6 101.1-101.4 101.1z"  horiz-adv-x="1024" />

    
    <glyph glyph-name="shipin-1" unicode="&#58957;" d="M510.976 778.24c-222.208 0-401.408-179.2-401.408-401.408s179.712-401.408 401.408-401.408c221.184 0 401.408 179.712 401.408 401.408 0.512 221.696-179.2 401.408-400.384 401.408h-1.024z m0-737.28c-185.344 0-335.872 150.528-335.872 335.872s150.528 335.872 335.872 335.872 335.872-150.528 335.872-335.872S696.32 40.96 510.976 40.96z m153.088 363.52L457.216 524.288c-20.992 12.288-48.64-3.072-48.64-27.648v-239.616c0-24.576 26.624-39.936 48.64-27.648l206.848 119.296c21.504 12.8 21.504 44.032 0 55.808z"  horiz-adv-x="1024" />

    
    <glyph glyph-name="shipin3" unicode="&#58956;" d="M897.024 760.832H126.976c-35.328 0-64-28.672-64-64v-626.176c0-35.328 28.672-64 64-64h770.048c35.328 0 64 28.672 64 64V696.832c0 35.328-28.672 64-64 64z m5.12-694.784H121.856V701.952h780.288v-635.904zM678.4 476.672L453.632 606.72a47.616 47.616 0 0 1-48.128 0c-14.848-8.704-24.064-24.576-24.064-41.472v-259.584c0-16.896 9.216-32.768 24.064-41.472 7.168-4.096 15.36-6.656 24.064-6.656 8.192 0 16.896 2.048 24.064 6.656l224.768 129.536c14.848 8.704 24.064 24.576 24.064 41.472s-9.216 32.768-24.064 41.472z m-243.2-153.6V547.328L643.072 435.2 435.2 323.072zM764.928 135.68H259.072c-16.384 0-29.696 13.312-29.696 29.696 0 16.384 13.312 29.696 29.696 29.696h505.856c16.384 0 29.696-13.312 29.696-29.696 0-16.384-13.312-29.696-29.696-29.696z"  horiz-adv-x="1024" />

    
    <glyph glyph-name="tupianjiazaishibai1" unicode="&#58953;" d="M687.104 525.824c0-34.304 27.648-61.952 61.952-61.952 34.304 0 61.952 27.648 61.952 61.952s-27.648 61.952-61.952 61.952c-34.304-0.512-61.952-28.16-61.952-61.952zM941.056 707.072c-4.608 5.632-11.776 8.704-18.944 9.216l-391.68 27.648c-9.216 0.512-17.92-3.072-23.552-10.24L428.032 634.88c-8.192-10.24-8.192-25.088 0.512-35.328l125.44-145.92L427.52 286.72l31.232 148.992c2.048 10.24-1.536 20.48-9.728 27.136L284.672 596.48 353.28 704.512c8.192 12.8 4.096 29.696-8.704 37.888-5.12 3.072-10.752 4.608-16.384 4.096L121.856 732.16c-15.36-1.024-26.624-14.336-25.6-29.184l48.128-685.056c1.024-15.36 14.336-26.624 29.184-25.6l151.552 11.264c15.36 1.024 26.624 14.336 25.088 29.184-1.024 15.36-14.336 26.624-29.696 25.6l-123.904-9.216-5.632 79.36 107.52 10.752c14.848 1.536 26.112 14.848 24.576 30.208-1.536 14.848-14.848 26.112-30.208 24.576l-105.984-10.752-34.816 496.128L276.48 688.128 225.28 605.184c-7.68-11.776-5.12-27.136 5.632-35.84l170.496-138.752-50.688-239.616c-1.024-4.096-0.512-8.704 0.512-12.8 0-3.072 0-6.656 1.024-9.728l44.032-132.608c3.584-10.24 12.8-17.92 23.552-18.432l449.024-40.96c15.36-1.536 28.672 9.728 29.696 25.088v0.512l48.128 685.056c1.536 7.168-0.512 14.336-5.632 19.968z m-84.992-541.696L501.76 199.68c-14.848 1.536-28.16-9.216-29.696-24.064v-1.024c-1.536-15.36 9.728-28.672 24.576-30.208l355.84-34.304-5.632-76.8-403.456 36.864-33.792 102.4 201.728 266.24c7.68 10.24 7.168 24.576-1.024 34.304L485.376 618.496l55.808 69.632 350.208-24.576-35.328-498.176z"  horiz-adv-x="1024" />

    
    <glyph glyph-name="xiaoxi" unicode="&#59054;" d="M406.016 376.32000000000005c0.512-23.552-18.944-43.008-42.496-43.008-24.064 0.512-43.008 19.456-42.496 43.008-0.512 23.552 18.944 43.008 42.496 43.008 23.552 0 42.496-18.944 42.496-43.008z m325.12 0c0.512-23.552-18.944-43.008-42.496-43.008-24.064 0.512-43.008 19.456-42.496 43.008-0.512 23.552 18.944 43.008 42.496 43.008 23.04 0 42.496-18.944 42.496-43.008z m-162.816 0c0.512-23.552-18.944-43.008-42.496-43.008-24.064 0.512-43.008 19.456-42.496 43.008-0.512 23.552 18.944 43.008 42.496 43.008 23.04 0 42.496-18.944 42.496-43.008z m-52.736-351.232c208.384 0 377.344 155.648 377.344 347.136s-168.96 347.136-377.344 347.136S138.24 564.2239999999999 138.24 372.736c0-71.68 23.552-138.752 64.512-194.048l-34.816-114.688c-6.656-22.016 6.656-35.84 29.184-30.72l144.896 31.232c54.272-26.112 113.152-39.424 173.568-39.424z"  horiz-adv-x="1024" />

    
    <glyph glyph-name="shuaxin2" unicode="&#58951;" d="M512.003 896C227.563 896 0 668.447 0 384.002 0 99.56 227.561-128 512.003-128 796.449-128 1024 99.561 1024 384.002c0 28.44-18.958 47.407-47.41 47.407-28.443 0-47.403-18.966-47.403-47.407 0-227.555-189.634-417.19-417.185-417.19-227.556 0-417.188 189.635-417.188 417.19 0 227.55 189.632 417.185 417.188 417.185 75.85 0 161.182-18.967 218.076-66.37v-9.483l-47.409-56.887c-18.962-18.966 0-56.894 28.441-56.894l218.078-9.477c18.96 0 37.926 28.444 37.926 47.405L900.744 858.073C891.26 886.518 853.334 896 834.377 867.558L796.449 810.67C711.11 867.558 616.299 896 512.003 896z"  horiz-adv-x="1024" />

    
    <glyph glyph-name="cuo" unicode="&#58952;" d="M959.488-68.608c-22.528-22.528-58.88-22.528-81.408 0L56.32 753.664c-22.528 22.528-22.528 58.88 0 81.408s58.88 22.528 81.408 0l822.272-822.272c22.016-22.528 22.016-58.88-0.512-81.408zM959.488 835.072c22.528-22.528 22.528-58.88 0-81.408L137.728-68.608c-22.528-22.528-58.88-22.528-81.408 0s-22.528 58.88 0 81.408L878.592 835.072c22.016 22.016 58.88 22.016 80.896 0z"  horiz-adv-x="1024" />

    
    <glyph glyph-name="shipin2" unicode="&#58949;" d="M479.232 560.1279999999999l-97.792 117.76H270.336l97.792-117.76h111.104z m287.744 0l-97.792 117.76H558.08l97.792-117.76h111.104z m-143.872 0l-97.792 117.76H414.208l97.792-117.76h111.104z m185.344 118.272h-106.496l97.792-117.76h51.712V634.3679999999999c0.512 25.088-17.92 44.032-43.008 44.032z m-571.392 0h-4.096c-24.576 0-43.52-18.944-43.52-44.032v-73.728h145.408c0-0.512-97.792 117.76-97.792 117.76z m-47.104-604.16c0-25.088 18.944-44.032 43.52-44.032H808.96c24.576 0 43.52 18.944 43.52 44.032V530.944H189.952v-456.704zM419.84 398.336c0 25.088 19.968 36.864 43.52 36.864 7.168 0 15.872-1.024 23.04-6.144l163.84-97.28c28.672-16.384 28.672-57.344 0-73.728l-163.84-97.28c-7.168-4.096-14.336-6.144-23.04-6.144-23.04 0-43.52 11.776-43.52 36.864V398.336z"  horiz-adv-x="1024" />

    
    <glyph glyph-name="biji" unicode="&#59053;" d="M495.616 322.048c29.696 45.056 138.24 206.848 179.2 241.664-51.712-123.392-154.112-250.368-215.04-371.712 112.64-37.888 164.352 7.168 226.304 59.904l-61.952 12.288c78.336 25.6 73.216 15.872 100.352 54.272 21.504 30.208 39.936 70.656 46.592 113.152l-51.2-6.656c16.384 9.728 52.736 26.112 58.368 35.328 15.36 25.088 55.808 262.144 56.32 311.296-155.648-1.024-404.992-326.656-422.912-482.304-17.92-156.672-196.096-392.704 83.968 32.768z m232.448-87.552c46.592-27.648 74.24-63.488 74.24-103.424 0-215.04-674.816-215.04-674.816 0 0 98.816 153.088 143.36 232.96 155.136-2.048-13.312-6.144-27.136-11.264-40.448-54.784-10.24-182.784-47.104-182.784-114.176 0-162.304 598.528-162.304 598.528 0 0 28.672-25.6 55.808-68.096 77.312 9.728 7.68 20.48 16.384 31.232 25.6z"  horiz-adv-x="1024" />

    
    <glyph glyph-name="dianhua-srk" unicode="&#59052;" d="M653.312-62.464c-152.576 0-300.544 105.984-401.92 294.4-119.296 222.72-105.984 450.56 32.256 554.496 45.568 34.304 106.496 50.176 155.648 40.96 61.952-11.776 107.008-126.976 123.392-175.616 40.96-122.88 15.872-150.528 7.68-159.744-11.776-12.8-39.424-27.648-112.128-58.368 20.48-56.832 65.024-128.512 87.552-150.016 0.512 0.512 1.536 0.512 2.048 1.024 66.56 32.768 107.52 50.176 135.168 45.056 80.896-14.848 169.984-197.12 169.984-268.288 0-56.32-60.928-96.256-99.328-108.544-32.768-10.752-66.56-15.36-100.352-15.36z m90.624 48.128zM410.624 760.832c-27.136 0-60.416-11.264-85.504-29.696-90.112-67.584-132.608-242.688-12.8-466.432 83.456-156.16 238.08-302.592 420.864-245.76 25.6 8.192 50.688 31.232 50.688 42.496 0 59.392-79.36 191.488-112.128 199.68-8.704-0.512-31.744-7.68-93.184-38.4-19.968-9.728-24.064-11.776-33.28-11.776-68.608 0-151.04 184.32-162.816 234.496-6.144 28.672 15.872 37.888 39.424 48.128 50.688 21.504 81.92 36.352 94.208 44.032 7.68 51.2-61.952 210.944-91.136 222.72-3.584 0-8.704 0.512-14.336 0.512z"  horiz-adv-x="1024" />

    
    <glyph glyph-name="shuangxiangchehui" unicode="&#59057;" d="M908.8 723.968c18.432 27.648 23.552 50.688 5.632 63.488-17.92 12.8-33.792 3.072-58.88-22.016-23.04-25.088-42.496-45.568-58.368-61.952-17.408-17.408-42.496-41.984-75.776-72.704l-5.632-1.024c-50.176 29.696-124.416 25.088-184.832-21.504-1.536-1.536-1.536-4.096 0-5.632 28.672-28.672 59.392-57.344 91.648-84.992 20.48-17.92 36.352-30.72 48.128-39.936 4.096-3.584 14.336-11.264 30.208-24.064 1.536-1.536 88.576-68.608 90.112-67.072 0.512 0.512 0.512 1.024 1.024 1.536 24.064 35.328 37.888 125.952-1.024 177.152 0 2.048 0 3.584 0.512 5.632 25.088 32.768 45.568 58.88 60.928 77.824 14.336 18.944 33.792 44.032 56.32 75.264zM735.744 9.727999999999952c40.448-6.656 74.752 27.648 68.096 68.096-4.096 24.576-23.552 44.032-48.128 48.128-40.448 6.656-74.752-27.648-68.096-68.096 4.096-24.576 23.552-44.032 48.128-48.128zM833.024 126.976c16.384-0.512 30.208 11.776 30.72 28.16v2.56c-0.512 16.384-14.336 29.184-30.72 28.16-15.36-0.512-27.648-12.8-28.16-28.16-0.512-15.872 11.776-29.696 28.16-30.72zM547.84 23.398400000000038l-18.944 6.656-88.064 41.984-6.656 22.528 2.048 3.584c-6.656-2.56-13.824-5.12-20.992-7.168l-9.216-3.072-8.704 3.584s-16.384 7.168-18.432 8.192c-0.512 0.512-73.216 44.032-109.056 86.016l-7.68 8.704 8.704 22.528 1.536 5.632c0.512 0.512 0 1.536 0.512 2.048-6.144-1.536-11.776-4.096-18.432-6.144l-14.336-7.68-15.872 14.848c-15.872 14.848-71.68 69.632-90.112 98.304l-12.288 19.456 15.36 12.8h-0.512l-14.848-4.096-12.288 16.384c-18.432 23.552-31.232 42.496-38.4 57.344-6.144 12.288-11.264 29.696-16.384 53.248v9.728s2.048 15.872 5.12 19.968c3.072 4.608 14.848 7.168 14.848 7.168 7.68 1.536 16.896 1.024 38.4-0.512 66.56-4.096 222.72-13.312 325.632 60.928 12.288 8.704 29.696 7.168 40.448-3.584 37.888-38.912 73.216-71.68 103.936-97.28 33.792-27.648 93.184-70.656 177.152-128.512l2.048-1.536c4.608-4.096 14.336-14.848 8.704-33.28-1.024-3.584-2.56-8.192-3.584-13.312-8.192-30.72-24.064-88.064-56.32-134.656-60.928-87.552-113.664-134.144-157.696-138.24l-5.632-2.56z m0.512 53.248l1.024-0.512c19.968 1.536 62.976 32.768 120.832 116.736 27.136 39.424 41.472 91.648 49.152 119.296 0 1.024 0.512 1.536 0.512 2.048-78.848 54.272-135.168 95.744-168.448 122.88-29.696 24.064-61.952 54.272-97.28 89.6-115.712-74.752-274.432-65.024-344.064-60.928 2.56-8.704 4.608-13.824 6.144-17.408 3.584-6.656 10.752-19.456 27.136-40.96 26.624 1.536 47.616 3.584 61.44 7.168 15.872 3.584 37.888 7.68 66.048 12.8 15.36 4.096 41.472 10.752 49.152-13.824 8.192-25.6-11.264-32.768-68.096-54.784-32.768-12.288-50.688-19.968-61.44-25.088 16.384-19.456 41.472-44.544 60.416-62.976 34.304 9.216 60.416 18.432 76.8 27.136 19.456 10.24 43.52 25.088 70.656 43.52 52.224 38.912 74.24 55.808 92.16 33.28 18.432-22.528 8.704-32.256-102.4-130.56-19.456-17.408-43.52-32.256-60.928-43.008-0.512 0-0.512-0.512-1.024-0.512 26.624-24.064 64-48.128 77.824-56.32 0.512-0.512 2.048-1.024 3.584-1.536 37.376 13.312 64 27.136 79.36 41.984 26.112 25.088 48.64 52.224 64.512 78.336l4.608 5.632s5.632 5.632 14.336 8.704c10.24 3.584 20.48-5.12 20.48-5.12 30.208-27.136-30.72-118.784-31.232-119.808-16.384-23.552-35.84-41.984-51.712-55.296l40.448-20.48z m-353.28 204.288z m0.512 3.072z"  horiz-adv-x="1024" />

    
    <glyph glyph-name="shoucang" unicode="&#59059;" d="M197.12 572.928c-18.432-8.192-17.92-34.304 0.512-41.984l307.2-128c5.632-2.56 12.288-2.56 17.92 0l299.008 124.928c18.432 8.192 18.944 34.304 0 41.984L537.6 688.64c-25.6 10.752-54.272 10.24-79.36-1.024l-261.12-114.688zM459.776 30.720000000000027c14.848-7.168 32.768 4.096 32.768 20.48v304.128c0 9.216-5.632 17.92-14.336 20.992L178.688 496.64c-14.848 6.144-31.744-5.12-31.744-20.992v-287.232c0-8.704 5.12-15.872 12.288-19.456-0.512 0 300.544-138.24 300.544-138.24z m-204.288 326.144c-0.512 16.896 16.896 27.648 32.768 20.992l92.16-43.008c8.192-4.096 13.312-11.776 13.312-20.992-0.512-16.384-17.408-27.136-32.768-19.968l-90.624 41.984c-9.216 3.072-14.336 11.264-14.848 20.992z m281.6-303.616c0-16.896 17.92-27.648 33.28-20.48l299.52 144.896c8.192 4.096 12.8 11.776 12.8 20.48V481.792c0 16.384-16.896 27.136-32.256 20.992l-286.208-121.344c-15.872-7.168-26.112-22.528-26.112-40.448l-1.024-287.744z"  horiz-adv-x="1024" />

    
    <glyph glyph-name="yuyin-" unicode="&#59055;" d="M514.56 262.65599999999995c80.896 0 146.432 66.048 146.432 146.432V604.672c0 80.896-66.048 146.432-146.432 146.432-80.896 0-146.432-66.048-146.432-146.432v-195.584c0-81.408 65.536-146.432 146.432-146.432zM783.36 396.288c0 20.48-16.384 37.376-36.864 37.376s-36.864-16.384-36.864-36.864c0-108.032-87.04-195.072-195.584-195.584-108.032 0-195.072 87.04-195.584 195.584 0 19.968-16.384 36.864-36.864 36.864s-36.864-16.384-36.864-36.864v-0.512c0-135.68 101.376-247.808 231.936-265.216v-88.064H355.84c-19.968 0-36.864-16.384-36.864-36.864s16.384-36.864 36.864-36.864h317.44c19.968 0 36.864 16.384 36.864 36.864s-16.384 36.864-36.864 36.864h-122.368v88.064c131.072 17.92 232.448 129.536 232.448 265.216z"  horiz-adv-x="1024" />

    
    <glyph glyph-name="wenjian2" unicode="&#59056;" d="M822.784 51.200000000000045H219.136s-51.2-6.656-51.2 57.344V629.248s0 57.344 57.344 57.344h209.92s25.088 6.656 44.544-25.088 31.744-51.2 31.744-51.2 6.656-6.656 25.088-6.656h273.408s51.2 6.656 51.2-51.2v-444.416c6.144-6.144 12.288-56.832-38.4-56.832zM778.24 457.728c0 12.8-12.8 25.088-25.088 25.088H283.136c-12.8 0-25.088-12.8-25.088-25.088 0-12.8 12.8-25.088 25.088-25.088h470.016c12.288 0 25.088 12.288 25.088 25.088z"  horiz-adv-x="1024" />

    
    <glyph glyph-name="tupian-" unicode="&#59058;" d="M740.864 712.192c62.976 0 114.176-51.2 114.176-114.176v-457.728c0-62.976-51.2-114.176-114.176-114.176H283.136C220.16 25.600000000000023 168.96 76.79999999999995 168.96 139.77599999999995V597.504C168.96 660.48 220.16 711.6800000000001 283.136 711.6800000000001l457.728 0.512zM294.912 81.40800000000002H773.12c15.36 0 28.16 12.8 28.16 28.16 0 4.608-1.024 9.728-3.584 13.824l-88.064 156.16c-10.752 19.968-35.84 27.136-55.296 16.896l-107.52-54.784c-6.656-3.584-15.36-1.024-18.944 6.144 0 0 0 0.512-0.512 0.512L450.56 413.696c-9.728 20.992-34.816 30.208-55.808 20.48-6.144-3.072-11.776-7.168-15.36-12.8l-144.896-189.44c-5.632-7.168-8.704-16.384-8.704-25.6v-55.296c-1.024-38.4 30.208-69.632 69.12-69.632z m343.04 452.096c0-21.504 17.408-38.912 38.912-38.912 21.504 0 38.912 17.408 38.912 38.912 0 21.504-17.408 38.912-38.912 38.912-21.504-0.512-38.912-17.92-38.912-38.912z"  horiz-adv-x="1024" />

    
    <glyph glyph-name="shuaxin1" unicode="&#59051;" d="M512 865.92c-18.048 0-30.08-12.096-30.08-30.144 0-18.112 12.032-30.08 30.08-30.08A419.072 419.072 0 0 0 933.632 384 419.072 419.072 0 0 0 512-37.632 419.072 419.072 0 0 0 90.368 384c0 126.464 54.208 240.96 150.592 325.248v-114.432c0-18.048 12.032-30.08 30.08-30.08 18.112 0 30.08 12.032 30.08 30.08V775.552c0 18.048-11.968 30.08-30.08 30.08H90.368c-18.112 0-30.08-12.032-30.08-30.08 0-18.112 11.968-30.08 30.08-30.08h102.4A483.904 483.904 0 0 1 30.08 384c0-265.024 216.832-481.92 481.856-481.92S993.92 119.04 993.92 384 776.96 865.92 512 865.92z"  horiz-adv-x="1024" />

    
    <glyph glyph-name="xiazai1" unicode="&#58946;" d="M329.4 449.8l156.5-156.6c6.6-6.6 15.2-9.8 23.8-9.8 0.3 0 0.5 0.1 0.8 0.1s0.5-0.1 0.8-0.1c8.7 0 17.3 3.3 23.8 9.8l156.5 156.6c13.2 13.2 13.2 34.5 0 47.7-13.2 13.2-34.5 13.2-47.7 0l-100-100V760c0 18.6-15.1 33.7-33.7 33.7s-33.7-15.1-33.7-33.7v-361.9L377 497.6c-13.2 13.2-34.5 13.2-47.7 0-13.1-13.3-13.1-34.7 0.1-47.8zM815.7 625.5H715.1c-18.6 0-33.7-15.1-33.7-33.7s15.1-33.7 33.7-33.7h100.6c18.6 0 33.7-15.1 33.7-33.7v-438.5c0-18.6-15.2-33.7-33.7-33.7H209.4c-18.6 0-33.7 15.1-33.7 33.7V524.4c0 18.6 15.2 33.7 33.7 33.7h98.9c18.6 0 33.7 15.1 33.7 33.7s-15.1 33.7-33.7 33.7h-98.9c-55.8 0-101.2-45.4-101.2-101.2v-438.5c0-55.8 45.4-101.2 101.2-101.2h606.5c55.8 0 101.2 45.4 101.2 101.2V524.4c-0.1 55.8-45.6 101.1-101.4 101.1z"  horiz-adv-x="1024" />

    
    <glyph glyph-name="wenjianjia" unicode="&#58947;" d="M510.4 652.8c8-27.2 33.6-44.8 60.8-44.8h259.2c0 35.2-28.8 64-64 64H504l6.4-19.2zM484.8 736h281.6c70.4 0 128-57.6 128-128v-25.6c30.4-24 51.2-60.8 51.2-102.4v-384c0-70.4-57.6-128-128-128H208c-70.4 0-128 57.6-128 128V672c0 70.4 57.6 128 128 128h164.8c46.4 0 89.6-25.6 112-64z m-112 0H208c-35.2 0-64-28.8-64-64v-576c0-35.2 28.8-64 64-64h608c35.2 0 64 28.8 64 64V480c0 35.2-28.8 64-64 64H574.4c-56 0-105.6 36.8-121.6 89.6l-19.2 57.6c-8 27.2-32 44.8-60.8 44.8zM272 192h256c17.6 0 32-14.4 32-32s-14.4-32-32-32H272c-17.6 0-32 14.4-32 32s14.4 32 32 32z"  horiz-adv-x="1024" />

    
    <glyph glyph-name="wenjian1" unicode="&#58948;" d="M870.62 655.23H467.21c0 49.51-40.14 89.64-89.64 89.64H153.46c-49.53 0-89.65-40.13-89.65-89.64v-627.52c0-49.51 40.12-89.65 89.65-89.65h717.17c49.52 0 89.64 40.13 89.64 89.65V565.58c-0.01 49.51-40.13 89.65-89.65 89.65z m0-582.69c0-24.76-20.08-44.82-44.83-44.82H198.28c-24.75 0-44.82 20.07-44.82 44.82V386.29h717.17v-313.75z m-44.83 403.39H153.46v179.3c0.22-0.23 20.07 0 44.82 0h134.47c24.75 0 44.77-0.06 44.83 0v-89.65H825.8c24.75 0 44.83-20.07 44.83-44.82-0.01-24.75-20.09-44.83-44.84-44.83z"  horiz-adv-x="1024" />

    
    <glyph glyph-name="quanping1" unicode="&#59046;" d="M810.8 739c32 0 58-26 58-58v-579.5c0-32-26-58-58-58h-579c-32 0-58 26-58 58V681c0 32 26 58 58 58h579m0 58h-579c-64.1 0-116-51.9-116-116v-579.5c0-63.7 51.9-115.6 116-115.6h579.5c64.1 0 116 51.9 116 116V681c-0.5 64.1-52.4 116-116.5 116zM637.5 449.5h-58V623h-174v58H637l0.5-231.5zM592 672.5l41-41-182.1-182.4-41 41L592 672.5zM637.1 102H405.5V333.5h58v-174h174l-0.4-57.5zM592 333.5l41-41-182.1-182-41 41 182.1 182z"  horiz-adv-x="1024" />

    
    <glyph glyph-name="zanting" unicode="&#59047;" d="M718.9 776.9c-45 0-84.2-39.2-84.2-84.2v-617.5c0-45 39.2-84.2 84.2-84.2s84.6 39.2 84.6 84.2V692.7c0.1 45-39.5 84.2-84.6 84.2z m-393.3 0c-45 0-84.6-39.2-84.6-84.2v-617.5c0-45 39.6-84.2 84.6-84.2s84.2 39.2 84.2 84.2V692.7c0 45-39.2 84.2-84.2 84.2z"  horiz-adv-x="1024" />

    
    <glyph glyph-name="chenggong" unicode="&#59048;" d="M512 807.2C276.5 807.2 86.8 617.5 86.8 382S276.5-43.2 512-43.2 937.2 146.5 937.2 382 747.5 807.2 512 807.2z m224.1-346.5l-216-210.9c-16.2-17.9-42.5-19.6-60.4-5.1-1.7 1.7-1.7 3.4-3.4 3.4s-3.4 1.7-3.4 3.4L297.7 403.3c-13.2 14.9-11.5 37.4 5.1 50.6C316 468.7 339 470 355.1 459L489 328l191.3 187.9c16.2 17.9 42.5 19.6 60.4 5.1 13.2-17.8 11.5-44.2-4.6-60.3z"  horiz-adv-x="1024" />

    
    <glyph glyph-name="bofang1" unicode="&#59049;" d="M250 87.5c0-40.9 30.3-73.9 67.6-73.9 11.8 0 23.6 3.5 33.4 9.8l472.8 296c32.2 20.4 43.6 65.6 25.2 101-5.9 11.4-14.5 20.8-25.2 27.5L351 744.6c-32.2 20.4-73.5 7.9-92-27.5-5.9-11.4-9-24-9-36.6v-593z"  horiz-adv-x="1024" />

    
    <glyph glyph-name="wenjian" unicode="&#59040;" d="M865.8 63.5V501c-3.3 26.7-16.7 46.8-33.4 63.5L648.7 738.2c-16.7 16.7-43.4 30.1-70.1 33.4h-314c-66.8 0-100.2-30.1-100.2-96.9v-617.9c3.3-63.5 33.4-90.2 100.2-90.2h501c70.1 0.1 103.5 30.1 100.2 96.9zM608.6 561.1V691.4l173.7-167H648.7c-23.4 0-40.1 16.7-40.1 36.7z m46.8-90.1H809v-424.2c0-13.4-13.4-23.4-26.7-23.4H254.6c-16.7 0-26.7 10-26.7 23.4V688.1c0 13.4 10 23.4 23.4 23.4h297.2v-136.9c0-73.6 33.4-103.6 106.9-103.6zM284.7 324c0-16.7 13.4-30.1 30.1-30.1h397.4c16.7 0 30.1 13.4 30.1 30.1 0 16.7-13.4 30.1-30.1 30.1H314.7c-16.7 0-30-13.4-30-30.1zM715.5 180.4H318.1c-16.7 0-30.1-13.4-30.1-30.1 0-16.7 13.4-30.1 26.7-30.1h397.4c16.7 0 33.4 13.4 33.4 30.1 0.1 16.7-13.3 30.1-30 30.1z"  horiz-adv-x="1024" />

    
    <glyph glyph-name="sousuo1" unicode="&#59041;" d="M901.1 55.5L753.5 203.2c49.8 60.4 79.7 137.9 79.7 222.2 0 193.1-156.5 349.6-349.6 349.6S134 618.5 134 425.3s156.5-349.6 349.6-349.6c79.1 0 152.1 26.3 210.7 70.6l148.9-148.9c16.1-16.1 42-16.1 58 0s16 42.1-0.1 58.1zM200 425.3C200 581.9 327 709 483.6 709s283.7-127 283.7-283.7-127-283.7-283.7-283.7S200 268.7 200 425.3z"  horiz-adv-x="1024" />

    
    <glyph glyph-name="paixu" unicode="&#59042;" d="M820.9 148.1l50.9 50c13.4 13.1 34.8 13.1 48.2 0 13.1-12.6 13.5-33.4 0.9-46.4l-0.9-0.9-109.6-107.6c-9.8-9.6-24.4-12.5-37.2-7.3-12.6 5.1-20.9 17.3-20.9 30.9V712.1c2.3 17 17 29.7 34.2 29.6 17.5 0 32.1-12.7 34.3-29.6v-564h0.1zM129.1 678.2c-17.1 2-30 16.3-30.2 33.5 0.1 17.2 13 31.7 30.2 33.7H622c17.1-2 30.1-16.4 30.2-33.7-0.2-17.2-13.2-31.6-30.3-33.5H129.1z m0-322.7c-17.1 2-30.1 16.4-30.2 33.7 0.1 17.2 13.1 31.6 30.2 33.6H622c17.1-2 30-16.4 30.2-33.6-0.1-17.3-13.1-31.7-30.3-33.7H129.1z m0-322.5c-17.1 2-30 16.4-30.2 33.6 0.1 17.2 13.1 31.6 30.2 33.6H622c17.1-2 30-16.4 30.2-33.6-0.1-17.2-13.1-31.6-30.3-33.6H129.1z"  horiz-adv-x="1024" />

    
    <glyph glyph-name="zhuanfa1" unicode="&#59043;" d="M478.7 538.5c-8.6-1-18.4-2.4-29.2-4.4-41.7-7.7-83.4-21.6-122.6-43.3-112.5-62.3-180.4-174.6-180.4-344.9-0.2-13.3-0.3-26.6-0.4-39.9-0.1-18.9-0.1-32.3 0.2-38.4 0.9-24.3 30.5-35.8 47.6-18.4 23.3 23.7 47.2 46.8 71.7 69.2l11.8 10.8c27.4 22.2 42.4 33.5 66.4 48.9 45.9 29.4 91.3 48.7 134.9 54.6V40c0-24.3 28.9-36.9 46.7-20.4L914.7 381c11.3 10.4 11.9 28 1.5 39.3l-1.5 1.5-389.3 361.5c-17.8 16.5-46.7 3.9-46.7-20.4v-224.4z m55.6 160.6L855 401.4 534.3 103.6V262.3c0 15.4-12.5 27.8-27.8 27.8-64.5 0-128.8-24.4-192.7-65.3-26.3-16.8-42.4-29.1-72.7-53.6-13.2-11.9-26.2-23.9-39.1-36.1l0.1 10.4c0 150.2 56.7 244 151.8 296.6 33 18 68.8 30.6 105.8 37.3 12.7 2.4 24.4 3.9 34.8 4.7 4 0.4 8.1 0.6 12.1 0.7 15.3 0 27.7 12.5 27.7 27.8V699.1z"  horiz-adv-x="1024" />

    
    <glyph glyph-name="guanbi1" unicode="&#59044;" d="M494.7 792.6c-227.1 0-411.4-184.3-411.4-411.4s184.3-411.4 411.4-411.4 411.4 184.3 411.4 411.4-184.3 411.4-411.4 411.4z m169.5-573c-8.6-8.6-23.8-8.6-32.6 0L502.2 349 372.8 219.6c-8.6-8.6-23.8-8.6-32.6 0-8.6 8.6-8.6 23.8 0 32.6l129.4 129.4-128.8 128.9c-8.6 8.6-8.6 23.8 0 32.6 8.6 8.6 23.8 8.6 32.6 0l128.9-128.9 128.9 128.9c9.1 8.6 23.8 8.6 32.6 0 8.6-8.6 8.6-23.8 0-32.6l-129-128.9 129.4-129.4c8.6-8.8 8.6-24 0-32.6z"  horiz-adv-x="1024" />

    
    <glyph glyph-name="qunliao" unicode="&#59037;" d="M368.128 582.144c-192.512 0-351.744-134.144-351.744-302.08 0-79.872 40.96-159.744 110.592-214.016 4.096-4.096 4.096-12.8 4.096-16.896l-20.48-67.072c-4.096-12.8 0-25.088 8.192-33.792 4.096-4.096 12.288-8.192 20.48-8.192h12.288l118.784 46.08h8.192c32.768-4.096 61.44-8.192 90.112-8.192 192.512 0 351.744 134.144 351.744 302.08s-159.744 302.08-352.256 302.08zM290.304 48.639999999999986c-16.384 4.096-32.768 0-45.056-4.096l-61.44-25.088 4.096 8.192c8.192 33.792 0 62.976-24.576 83.968-57.344 46.08-86.016 104.96-86.016 167.936 0 130.048 131.072 239.104 290.816 239.104 159.744 0 290.816-104.96 290.816-239.104 0-151.04-176.128-272.896-368.64-230.912zM998.4 510.464c0 167.936-159.744 302.08-351.744 302.08-126.976 0-245.76-58.88-307.2-155.136-8.192-12.8-4.096-33.792 8.192-41.984 12.288-8.192 32.768-4.096 40.96 8.192 53.248 75.776 151.552 125.952 258.048 125.952 159.744 0 290.816-109.056 290.816-239.104 0-62.976-32.768-121.856-86.016-167.936-24.576-20.992-32.768-54.784-24.576-83.968l4.096-8.192-36.864 16.896c-16.384 8.192-36.864 0-40.96-16.896-8.192-16.896 0-37.888 16.384-41.984l94.208-33.792c4.096-4.096 8.192-4.096 12.288-4.096 4.096 0 12.288 0 24.576 4.096 8.192 8.192 12.288 20.992 8.192 33.792l-20.48 67.072c-4.096 8.192 0 12.8 4.096 16.896 69.12 58.88 105.984 134.144 105.984 218.112zM212.48 321.53599999999994c-24.576 0-45.056-20.992-45.056-46.08s20.48-46.08 45.056-46.08c24.576 0 45.056 20.992 45.056 46.08s-20.48 46.08-45.056 46.08z m151.552 0c-24.576 0-45.056-20.992-45.056-46.08s20.48-46.08 45.056-46.08c24.576 0 45.056 20.992 45.056 46.08s-20.48 46.08-45.056 46.08z m155.648 0c-24.576 0-45.056-20.992-45.056-46.08s20.48-46.08 45.056-46.08c24.576 0 45.056 20.992 45.056 46.08s-20.48 46.08-45.056 46.08z"  horiz-adv-x="1024" />

    
    <glyph glyph-name="shipin1" unicode="&#59038;" d="M898.2 597.6c-9.1 5.7-19.6 8.7-31.2 8.7-11.3 0-23-2.8-34.7-8.5l-160.1-77.3v27.2c0 51.1-41.6 92.5-92.5 92.5H193.5c-51.1 0-92.5-41.6-92.5-92.5v-334.4c0-51.1 41.6-92.5 92.5-92.5h386.1c51.1 0 92.5 41.6 92.5 92.5v27.1l160.2-78c11.7-5.7 23.4-8.7 34.9-8.7s21.9 2.9 31 8.5c18.3 11.5 28.8 33 28.8 59.3V538.2c0.1 26.2-10.4 47.8-28.8 59.4z m-39.6-81.1v-278.2c0-9.6-2.9-17.2-7.7-20.2-2-1.2-4.5-1.8-7.4-1.8-4.1 0-9 1.3-14.1 3.8l-157 76.6V459.1l156.9 75.7c5.1 2.4 10 3.8 14.1 3.8 2.9 0 5.5-0.6 7.4-2 4.9-2.9 7.8-10.3 7.8-20.1z m-689.7 13.3c0 24.6 20 44.5 44.5 44.5h345c24.6 0 44.5-20 44.5-44.5V231c0-24.6-20-44.5-44.5-44.5h-345c-24.5 0-44.5 20-44.5 44.5V529.8z"  horiz-adv-x="1024" />

    
    <glyph glyph-name="xiazai" unicode="&#59039;" d="M329.4 449.8l156.5-156.6c6.6-6.6 15.2-9.8 23.8-9.8 0.3 0 0.5 0.1 0.8 0.1s0.5-0.1 0.8-0.1c8.7 0 17.3 3.3 23.8 9.8l156.5 156.6c13.2 13.2 13.2 34.5 0 47.7-13.2 13.2-34.5 13.2-47.7 0l-100-100V760c0 18.6-15.1 33.7-33.7 33.7s-33.7-15.1-33.7-33.7v-361.9L377 497.6c-13.2 13.2-34.5 13.2-47.7 0-13.1-13.3-13.1-34.7 0.1-47.8zM815.7 625.5H715.1c-18.6 0-33.7-15.1-33.7-33.7s15.1-33.7 33.7-33.7h100.6c18.6 0 33.7-15.1 33.7-33.7v-438.5c0-18.6-15.2-33.7-33.7-33.7H209.4c-18.6 0-33.7 15.1-33.7 33.7V524.4c0 18.6 15.2 33.7 33.7 33.7h98.9c18.6 0 33.7 15.1 33.7 33.7s-15.1 33.7-33.7 33.7h-98.9c-55.8 0-101.2-45.4-101.2-101.2v-438.5c0-55.8 45.4-101.2 101.2-101.2h606.5c55.8 0 101.2 45.4 101.2 101.2V524.4c-0.1 55.8-45.6 101.1-101.4 101.1z"  horiz-adv-x="1024" />

    
    <glyph glyph-name="fenzu" unicode="&#59034;" d="M252.4 101.2V761h-112v-770h770V101.2z"  horiz-adv-x="1024" />

    
    <glyph glyph-name="xiangxia" unicode="&#59035;" d="M983 611.9c0-8-3-15.9-8.9-22.1l-439-457.9c-6-6.3-14.4-9.9-23.1-9.9-8.7 0-17.1 3.6-23.1 9.9l-439 457.9c-12.2 12.8-11.8 33 1 45.2s33 11.8 45.2-1L512 200.2 927.9 634c12.2 12.8 32.5 13.2 45.2 1 6.6-6.3 9.9-14.6 9.9-23.1z"  horiz-adv-x="1024" />

    
    <glyph glyph-name="fasongwenjian1" unicode="&#59032;" d="M186.88 17.408000000000015c-53.76 0-97.28 41.472-97.28 92.16v547.84c0 50.688 43.52 92.16 97.28 92.16h204.8c45.056 0 87.552-30.208 103.424-73.216l1.024-3.584H839.68c26.624 0 50.176-9.728 68.096-27.648 17.408-17.408 26.624-39.936 26.624-64.512v-471.04c0-50.688-43.52-92.16-97.28-92.16h-650.24z m3.584 660.48c-9.216-2.048-12.288-4.096-16.896-7.168l-1.024-0.512-0.512-1.024c-2.048-3.072-3.072-8.704-3.072-12.288v-545.28c0-9.728 8.704-20.48 20.48-20.48h645.12c9.728 0 20.48 6.656 20.48 15.36 0 1.024 0 119.808 0.512 237.056 0 56.32 0.512 109.568 1.024 162.816 0 12.8 0 24.576 0.512 34.304v19.456c0 3.584 0 7.168 0.512 9.728v5.632 3.584l0.512 1.024v1.024c0 7.68-6.144 15.36-15.872 15.36H429.568l-10.24 58.88c-1.536 10.752-15.36 23.04-26.112 23.04H190.976l-0.512-0.512zM539.648 181.76c-9.728 0-18.432 4.608-24.576 12.288l-0.512 1.024-0.512 0.512c-7.68 7.168-11.776 16.384-10.752 25.088 0.512 8.704 5.632 16.896 12.8 21.504l0.512 0.512 65.024 60.928H330.24c-20.992 0-35.84 14.848-35.84 35.84 0 18.432 17.408 35.84 35.84 35.84h254.976l-72.192 66.56c-9.216 8.192-13.824 17.92-13.312 27.648 0.512 8.704 5.632 16.384 12.8 21.504l1.024 0.512 0.512 0.512c7.68 7.168 16.896 11.264 26.624 11.264 9.728 0 18.432-4.608 24.576-12.288l0.512-1.024 139.776-127.488c4.608-4.096 10.24-17.408 10.24-25.088 0-8.192-4.096-15.36-9.728-23.552l-0.512-0.512-6.144-6.144-133.12-112.64-0.512-0.512c-6.144-8.192-15.872-12.288-26.112-12.288z"  horiz-adv-x="1024" />

    
    <glyph glyph-name="fasongmingpian" unicode="&#59033;" d="M165.376 22.015999999999963c-44.544 0-80.896 38.912-80.896 86.528V658.944c0 47.616 36.352 86.528 80.896 86.528h683.52c44.544 0 80.896-38.912 80.896-86.528v-549.888c0-47.616-36.352-86.528-80.896-86.528H165.376v-0.512z m0 651.776c-7.68 0-13.824-6.656-13.824-15.36v-549.888c0-8.192 6.144-15.36 13.824-15.36h683.52c7.68 0 13.824 6.656 13.824 15.36V658.944c0 8.192-6.144 15.36-13.824 15.36H165.376v-0.512zM632.832 265.216c-17.408 0-31.744 15.872-31.744 35.84s14.336 35.84 31.744 35.84h141.824c17.408 0 31.744-15.872 31.744-35.84s-14.336-35.84-31.744-35.84h-141.824zM632.832 407.552c-17.408 0-31.744 15.872-31.744 35.84s14.336 35.84 31.744 35.84h141.824c17.408 0 31.744-15.872 31.744-35.84s-14.336-35.84-31.744-35.84h-141.824zM544.256 193.024c-18.432 0-33.28 14.848-33.28 33.28 0 62.464-54.272 112.64-121.344 112.64s-121.344-50.176-121.344-112.64c0-18.432-14.848-33.28-33.28-33.28s-33.28 14.848-33.28 33.28c0 66.048 37.376 125.44 97.792 157.184-19.456 21.504-29.696 49.664-29.696 78.848 0 65.024 53.248 118.784 118.784 118.784S508.416 527.36 508.416 461.824c0-29.184-10.24-56.832-29.696-78.848 60.416-31.744 97.792-91.136 98.304-157.184 0.512-17.92-14.336-32.768-32.768-32.768zM383.488 525.312c-29.696 0-54.272-24.576-54.272-54.272 0-30.208 24.576-54.272 54.272-54.272S437.76 440.832 437.76 471.04s-24.064 54.272-54.272 54.272z"  horiz-adv-x="1024" />

    
    <glyph glyph-name="jiantou-" unicode="&#58935;" d="M876.84608 703.49824l-51.15392 51.15392-310.03136-310.0416-310.04672 310.0416-48.22016-48.22528 337.55648-337.5616 0.18944 0.18944 23.6288-23.6288 358.07744 358.07232zM874.28608 293.49888l-51.15392 51.15392-310.03136-310.0416-310.04672 310.0416-48.22016-48.22016 337.55648-337.56672 0.18944 0.18944 23.6288-23.6288 358.07744 358.07232z"  horiz-adv-x="1024" />

    
    <glyph glyph-name="jiantou--" unicode="&#58936;" d="M874.28608-16.35328l-337.55648 337.56672-0.18944-0.18944-23.6288 23.6288-358.07744-358.07232 51.15392-51.15392 310.03136 310.03648 310.04672-310.03648 48.22016 48.22016zM876.84608 393.64608L539.2896 731.2128l-0.18944-0.18944-23.6288 23.6288-358.07744-358.07232 51.15392-51.15392 310.03136 310.03648 310.04672-310.03648 48.22016 48.22016z"  horiz-adv-x="1024" />

    
    <glyph glyph-name="shexiangtou-jingzhi-" unicode="&#58932;" d="M885.248 587.776c-7.168 0-14.336-2.048-20.48-6.656l-133.632-86.016v-252.928l132.608-85.504c6.144-4.608 13.312-7.168 20.992-7.168 16.384 0.512 29.696 14.336 29.184 31.232V556.544c0.512 16.896-12.288 30.72-28.672 31.232z m-273.408 36.352H382.976l229.888-257.024 43.52-48.64 1.536-2.048V576.512c0.512 25.6-19.968 47.104-46.08 47.616z m-10.24-449.024l-23.04 26.112-23.552 26.624-0.512 0.512-290.816 324.096-6.656 7.168-9.728 10.752L199.68 624.128H119.296c-26.112-0.512-46.592-22.016-46.08-48.128v-415.744c-0.512-26.112 19.968-47.616 46.08-48.128h492.544c12.288 0.512 24.576 5.632 32.768 14.336l-43.008 48.64z m48.128 90.112l-23.552 26.624-43.52 48.64-246.784 274.432-7.168 8.192-1.024 1.024H254.464l23.552-26.624 9.728-10.752 6.144-7.168 290.304-324.096 0.512-0.512 24.064-26.624 23.04-26.112 26.112-29.184v81.92l-8.192 10.24zM846.848 44.544c4.608-5.12 7.168-11.776 7.168-18.432 0-7.68-3.072-15.36-9.216-20.48-4.608-4.608-10.752-7.168-17.408-7.168h-1.024c-7.68 0-14.848 3.072-19.968 9.216l-148.48 165.376-26.112 29.184-23.04 26.112-24.064 26.624-0.512 0.512-289.792 324.608-6.144 7.168-9.728 10.752-23.552 26.624H327.68l1.024-1.024 7.168-8.192 246.272-274.944 43.52-48.64 23.552-26.624 8.704-9.216 14.336-15.872 174.592-195.584zM874.496 26.624v-0.512l-20.48 0.512zM327.68 624.128l-40.448 45.056-126.464 141.312c-5.12 5.632-12.288 9.216-19.968 9.216h-0.512c-6.656 0-12.8-2.56-17.408-7.168-11.264-10.24-12.288-27.648-2.048-38.912l134.144-149.504 23.552-26.624 50.176 25.6-1.024 1.024z m0 0H254.464l23.552-26.624 50.176 25.6-0.512 1.024z"  horiz-adv-x="1024" />

    
    <glyph glyph-name="maikefeng-jinzhi-" unicode="&#58931;" d="M721.408 389.12V627.712c0 112.128-88.576 201.728-198.656 201.728-84.992 0-160.256-54.272-187.392-134.656l359.424-407.04c17.408 31.232 26.624 66.048 26.624 101.376zM757.76 389.12c0-46.08-12.8-91.136-37.888-129.536l23.552-26.624c32.768 48.128 50.176 105.472 50.176 163.84V462.336c0.512 9.728-6.656 17.92-15.872 18.432h-2.048c-9.728 0.512-17.408-6.656-17.92-16.384V389.12zM522.752 187.392c22.528 0 45.056 4.096 66.56 11.264L324.096 498.688V389.12c0-112.128 88.576-201.728 198.656-201.728zM667.136-14.336h-126.464v128.512c34.816 2.048 68.096 11.264 99.328 27.136l-25.088 28.16c-32.768-14.336-69.12-20.992-104.96-18.944-126.464 5.632-222.208 117.248-222.208 245.76V462.336c0 9.728-7.68 18.432-17.92 18.432-9.728 0-18.432-7.68-18.432-17.92V389.12c0-143.36 109.568-263.168 252.416-275.456v-128.512H378.368c-10.24 0-18.432-8.704-17.92-18.944 0-9.728 8.192-17.92 17.92-17.92h288.768c10.24 0 18.432 8.704 17.92 18.432 0 10.752-7.68 18.432-17.92 18.944zM895.488-1.536l-178.176 201.728-23.04 26.112-24.064 27.136-345.088 391.168-129.536 146.432c-10.24 11.776-28.16 12.8-39.936 2.56s-12.8-28.16-2.56-39.936l170.496-193.024 303.104-343.04 24.576-27.648 23.552-26.624 178.176-201.216c5.12-6.144 12.8-9.728 20.992-9.728 6.656 0 13.312 2.56 18.432 7.168 12.288 9.728 13.312 27.648 3.072 38.912z"  horiz-adv-x="1024" />

    
    <glyph glyph-name="shengyin-jinzhi-" unicode="&#58933;" d="M560.64 743.424c0 15.36-4.608 22.016-17.408 26.624h-0.512l-0.512 0.512c-4.096 2.048-8.192 3.072-12.8 3.072-6.656 0-12.8-2.56-17.92-7.168l-158.72-135.68 207.872-244.736V743.424zM529.92 211.968L241.152 551.424l-16.384 19.456H96.256c-8.192 0-16.384-3.584-22.528-9.216l-2.56-2.56h-2.048c-3.072-4.096-4.608-9.216-4.608-14.336V225.28c0-8.192 3.584-16.384 9.216-22.528 6.144-5.632 14.336-8.704 22.528-9.216H281.6l230.4-189.952 0.512-0.512c4.608-4.608 10.752-7.68 16.896-9.216 5.632 0 8.192 0 11.264 3.072l1.536 1.536 2.048 0.512c12.288 4.096 17.408 11.264 17.408 26.624v150.016l-7.68 9.216-24.064 27.136zM668.672 518.144h0.512l0.512-0.512c12.8-7.68 24.064-17.92 33.792-29.696 22.016-27.648 33.792-61.952 33.28-96.768 0-96.768-54.784-129.024-60.928-132.096-1.536-1.024-2.56-2.048-3.584-2.56l7.168-8.704 32.768-38.4c16.896 10.752 31.232 24.576 43.52 40.448 20.48 27.136 45.056 74.24 45.056 146.944 1.024 48.64-15.872 95.744-47.616 132.096-14.848 17.408-32.768 31.744-53.76 41.984h-1.536l-2.048 1.536c-3.584 2.048-7.68 3.072-11.776 3.072-11.776 0-24.576-7.68-27.136-15.872l-0.512-1.024-0.512-1.024c-3.584-6.656-4.608-14.848-1.536-22.016 2.048-8.192 7.168-14.336 14.336-17.408zM899.072 605.184c-20.48 32.256-46.08 60.416-75.776 83.968-1.536 1.024-2.048 1.536-3.072 2.56-4.608 2.56-9.728 4.096-14.848 4.096-11.776-0.512-22.528-5.632-30.72-14.336-7.68-14.848-4.096-33.28 8.704-44.544 7.68-4.096 14.848-9.216 20.992-15.36 14.336-13.824 27.136-29.184 38.4-45.568C867.328 539.136 896 476.16 896 385.024c0-91.136-27.136-154.112-50.176-190.976-10.24-16.384-22.528-31.744-36.352-45.568-5.632-6.144-12.8-11.264-20.48-15.36-2.56-2.048-5.12-4.096-7.168-6.656l41.984-49.152c0.512 0 1.024 0.512 1.024 1.024 0.512 0.512 1.536 1.536 3.072 2.56 28.672 23.552 53.248 51.712 72.704 83.456 38.4 62.976 58.368 137.216 58.368 221.184 0.512 82.944-19.968 156.672-59.904 219.648zM648.192 220.672l-22.016 26.112-23.04 27.136-42.496 49.664-239.104 281.088-7.168 8.192-39.936 47.104-122.88 144.384c-5.12 6.144-12.288 9.216-20.48 9.728h-0.512c-6.656 0-12.8-2.56-17.92-6.656-11.264-9.728-12.8-27.136-3.072-38.912l153.6-179.712 9.216-10.752 6.144-7.168 282.112-331.776 0.512-0.512 10.752-12.8 12.8-14.848 22.528-26.624 169.472-199.168c2.048-2.048 4.096-4.096 6.656-5.632 4.096-2.56 8.704-4.096 13.824-4.096h0.512c6.656 0 12.8 2.56 17.92 6.656 4.096 3.584 7.168 8.704 8.704 13.312 2.56 8.704 0.512 17.92-5.632 25.088l-170.496 200.192z"  horiz-adv-x="1024" />

    
    <glyph glyph-name="phone-" unicode="&#58920;" d="M514.944 422.28224c97.73056 0.20992 200.66816-9.48224 198.73792-54.25664-2.68288-63.98976-12.83072-111.58528 113.91488-125.2608 126.85312-13.6704 114.33472 78.32064 116.93568 140.33408 2.93888 71.53664-160.23552 170.7264-424.0896 170.36288-263.80288-0.41984-435.42528-100.1472-438.4256-171.74016-2.59584-62.00832-22.87104-154.0096 105.088-139.9808s121.79456 61.5936 124.42112 125.6448c1.98656 44.71808 105.69216 54.6816 203.4176 54.89664z"  horiz-adv-x="1024" />

    
    <glyph glyph-name="shexiangtou-" unicode="&#58921;" d="M658.10432 160.43008a47.17056 47.17056 0 0 0-46.18752-47.98976H119.25504a47.17056 47.17056 0 0 0-46.1824 47.98976V576.3584a47.17056 47.17056 0 0 0 46.1824 47.98976h492.66176a47.17056 47.17056 0 0 0 46.1824-47.98976v-415.9232z m206.60736 420.7616l-133.4784-86.31296v-252.928l132.57728-85.63712a33.536 33.536 0 0 1 21.18656-7.30624 30.12096 30.12096 0 0 1 29.056 31.0272V556.7488a30.12096 30.12096 0 0 1-29.056 31.0272 33.1008 33.1008 0 0 1-20.28544-6.59456z"  horiz-adv-x="1024" />

    
    <glyph glyph-name="shengyin-" unicode="&#58922;" d="M529.1008-5.60128a36.992 36.992 0 0 0-16.9984 9.00096l-0.3072 0.30208-230.4 190.10048H96.1024a35.45088 35.45088 0 0 0-22.70208 8.99584 35.45088 35.45088 0 0 0-9.00096 22.70208V544.50176a23.95648 23.95648 0 0 0 4.4032 14.59712h2.2016l2.39616 2.40128a35.45088 35.45088 0 0 0 22.70208 9.00096h185.2928l230.4 195.79904 0.2048 0.19968a24.71424 24.71424 0 0 0 17.80224 6.99904 28.1088 28.1088 0 0 0 12.5952-2.89792l0.50176-0.30208 0.50176-0.19968c12.49792-4.1984 17.2032-11.29984 17.2032-26.39872v-717.7984c0-15.104-4.70528-22.30272-17.2032-26.40384l-1.80224-0.59904-1.39776-1.39776c-3.00032-3.00032-5.60128-3.10272-11.10016-3.10272z m279.10144 79.70304c-9.90208 0-23.10144 5.09952-26.90048 12.5952-9.00096 18.00192-5.80096 36.4032 7.90016 46.10048a78.12608 78.12608 0 0 1 20.29568 15.60064 249.66656 249.66656 0 0 1 36.1984 45.70112c23.00416 36.80256 50.4064 99.70176 50.4064 190.8992s-29.0048 154.19904-53.2992 191.104a244.80768 244.80768 0 0 1-38.20544 45.59872 87.38304 87.38304 0 0 1-20.99712 15.49824 36.51584 36.51584 0 0 0-8.89856 44.50304 46.1568 46.1568 0 0 0 30.7968 14.30016 27.14624 27.14624 0 0 0 14.7968-4.1984c0.70656-0.60416 1.60256-1.3056 3.00544-2.4064a337.7152 337.7152 0 0 0 75.79648-84.096c40.09984-62.8992 60.50304-137.00096 60.50304-220.30336 0-83.69664-19.70176-158.10048-58.39872-221.09696a326.68672 326.68672 0 0 0-72.6016-83.59936c-1.69984-1.40288-2.60096-2.0992-3.3024-2.80064-3.39968-3.39968-13.29664-3.39968-17.1008-3.39968z m-119.6032 125.29664c-8.2944 0-22.59968 9.7024-26.90048 18.304l-0.19968 0.49664-0.29696 0.39936c-8.20224 12.40064 0.79872 30.40256 14.49984 39.70048 6.4 3.39968 60.89728 35.50208 60.89728 132.3008a150.54336 150.54336 0 0 1-33.19808 96.9984 130.70848 130.70848 0 0 1-33.69984 29.7984l-0.59904 0.3072-0.70144 0.19456a26.4704 26.4704 0 0 0-14.30016 16.80384 25.5488 25.5488 0 0 0 1.39776 22.20032l0.60416 0.896 0.29696 1.00352c2.90304 8.6016 15.60064 16.09728 27.29984 16.09728a20.87936 20.87936 0 0 0 11.6992-3.2l2.0992-1.39776h1.50016a163.4816 163.4816 0 0 0 53.504-41.90208 197.07392 197.07392 0 0 0 47.59552-132.1984c0-72.89856-24.4992-120.20224-44.99968-147.0976-22.59968-29.50144-45.59872-42.20416-50.39616-44.10368h-2.4064l-2.39616-2.40128c-3.2-3.00032-5.69856-3.2-11.29984-3.2z"  horiz-adv-x="1024" />

    
    <glyph glyph-name="maikefeng--" unicode="&#58923;" d="M775.552 480.85504a17.19296 17.19296 0 0 1-18.048-18.35008V389.12c0-135.76704-111.8976-245.84704-247.25504-238.50496C383.91296 156.11904 288.256 268.032 288.256 396.45696v66.048a18.048 18.048 0 1 1-36.096 0V389.12a275.90144 275.90144 0 0 1 252.672-275.2v-128.42496H378.496a18.35008 18.35008 0 0 1 0-36.69504h288.768a18.35008 18.35008 0 0 1 0 36.69504H540.928V113.92c142.57664 9.17504 252.672 135.76704 252.672 282.53696v66.048a17.19296 17.19296 0 0 1-18.048 18.35008z m-252.672-293.55008c110.09024 0 198.528 89.90208 198.528 201.81504V627.62496C721.408 739.54304 632.97024 829.44 522.88 829.44S324.352 739.54304 324.352 627.62496V389.12c0-111.91296 88.43264-201.81504 198.528-201.81504z"  horiz-adv-x="1024" />

    
    <glyph glyph-name="xuanzhuan" unicode="&#59030;" d="M694.4-64H195.2C131.7-64 80-12.4 80 50.9V434c0 63.4 51.7 114.9 115.2 114.9h499.2c63.5 0 115.2-51.6 115.2-114.9v-383.1c0-63.3-51.7-114.9-115.2-114.9zM195.2 472.3c-21.2 0-38.4-17.2-38.4-38.3v-383.1c0-21.1 17.2-38.3 38.4-38.3h499.2c21.2 0 38.4 17.2 38.4 38.3V434c0 21.1-17.2 38.3-38.4 38.3H195.2zM905.6 445.7c-14.8 0-28.9 8.6-35.2 23C788.6 655.2 592.7 683 483.2 683c-21.2 0-38.4 17.2-38.4 38.3s17.2 38.3 38.4 38.3c218.2 0 385-94.9 457.6-260.3 8.5-19.4-0.4-42-19.8-50.5-5-2.1-10.3-3.1-15.4-3.1zM473.6 610.6c-9.8 0-19.7 3.7-27.2 11.2l-72.5 72.4c-15 15-15 39.2 0 54.2l72.5 72.4c15 15 39.3 15 54.3 0s15-39.2 0-54.2l-45.4-45.3 45.4-45.3c15-15 15-39.2 0-54.2-7.4-7.4-17.3-11.2-27.1-11.2z"  horiz-adv-x="1024" />

    
    <glyph glyph-name="guanbi-1" unicode="&#58915;" d="M103.305 840.254l872.95-872.95-54.56-54.558-872.95 872.95zM921.695 840.254l54.56-54.559-872.95-872.95-54.56 54.56z"  horiz-adv-x="1024" />

    
    <glyph glyph-name="shanchu-1" unicode="&#58916;" d="M834.942 667.072a25.65 25.65 0 0 0 25.65-25.65v-718.195a25.65 25.65 0 0 0-51.3 0V641.422a25.65 25.65 0 0 0 25.65 25.65zM681.043 590.123a25.65 25.65 0 0 0 25.65-25.65v-487.347a25.65 25.65 0 0 0-51.3 0V564.473a25.65 25.65 0 0 0 25.65 25.65zM527.144 590.123a25.65 25.65 0 0 0 25.65-25.65v-487.347a25.65 25.65 0 0 0-51.3 0V564.473a25.65 25.65 0 0 0 25.65 25.65zM373.245 590.123a25.65 25.65 0 0 0 25.65-25.65v-487.347a25.65 25.65 0 0 0-51.3 0V564.473a25.65 25.65 0 0 0 25.65 25.65zM219.346 667.072a25.65 25.65 0 0 0 25.65-25.65v-718.195a25.65 25.65 0 1 0-51.3 0V641.422a25.65 25.65 0 0 0 25.65 25.65zM681.043 872.271a25.65 25.65 0 0 0 25.65-25.65v-102.6a25.65 25.65 0 1 0-51.3 0v102.6a25.65 25.65 0 0 0 25.65 25.65zM373.245 872.271a25.65 25.65 0 0 0 25.65-25.65v-102.6a25.65 25.65 0 0 0-51.3 0v102.6a25.65 25.65 0 0 0 25.65 25.65zM373.245 872.271h307.798a25.65 25.65 0 1 0 0-51.3H373.245a25.65 25.65 0 1 0 0 51.3zM219.346-51.123h615.596a25.65 25.65 0 1 0 0-51.3H219.346a25.65 25.65 0 1 0 0 51.3zM142.396 769.672h769.496a25.65 25.65 0 1 0 0-51.3H142.396a25.65 25.65 0 1 0 0 51.3z"  horiz-adv-x="1024" />

    
    <glyph glyph-name="hebingzhuanfa-" unicode="&#58917;" d="M664.475 841.753H965.31a27.348 27.348 0 0 0 27.348-27.35 27.348 27.348 0 0 0-27.348-27.348H664.475a27.348 27.348 0 0 0-27.349 27.349 27.348 27.348 0 0 0 27.349 27.349zM965.31 841.753a27.348 27.348 0 0 0 27.348-27.35V513.57a27.348 27.348 0 0 0-27.348-27.349 27.348 27.348 0 0 0-27.349 27.349V814.404a27.348 27.348 0 0 0 27.349 27.349zM62.805-6.055H965.31a27.349 27.349 0 1 0 0-54.698H62.805a27.349 27.349 0 1 0 0 54.698zM62.805-6.055H965.31a27.348 27.348 0 0 0 27.348-27.349 27.348 27.348 0 0 0-27.348-27.349H62.805a27.348 27.348 0 0 0-27.35 27.35 27.348 27.348 0 0 0 27.35 27.348zM62.805 267.431H336.29a27.348 27.348 0 0 0 27.349-27.349 27.348 27.348 0 0 0-27.35-27.348H62.806a27.348 27.348 0 0 0-27.35 27.348 27.348 27.348 0 0 0 27.35 27.35zM62.805 540.918h328.183a27.348 27.348 0 0 0 27.349-27.35 27.348 27.348 0 0 0-27.349-27.348H62.805a27.348 27.348 0 0 0-27.35 27.349 27.348 27.348 0 0 0 27.35 27.349zM62.805 814.404h382.88a27.348 27.348 0 0 0 27.35-27.349 27.348 27.348 0 0 0-27.35-27.348H62.805a27.348 27.348 0 0 0-27.35 27.348 27.348 27.348 0 0 0 27.35 27.349zM535.766-32.758c5.087-14.135 20.895-21.096 35.409-16.259 15.377 5.035 24.39 21.536 19.261 36.528-52.944 156.758-3.849 634.99 387.407 774.107L919.05 799.912c-406.133-192.056-445.923-658.55-383.283-832.67"  horiz-adv-x="1024" />

    
    </font>
</defs>
</svg>
